<svg width="47" height="43" viewBox="0 0 47 43" fill="none" xmlns="http://www.w3.org/2000/svg">
<path d="M39.3205 7.8186C40.3044 6.04079 40.0001 3.8828 38.5454 2.32092C36.8707 0.5229 34.266 0.0728408 31.9094 1.17445C31.2566 1.47966 30.6379 1.95359 29.7481 2.65519C29.7301 2.64807 29.7123 2.64066 29.6943 2.63373C29.652 2.61674 29.6096 2.5998 29.5673 2.5845C28.2323 2.06784 26.8245 1.69795 25.3642 1.49434C25.0094 1.44511 24.6519 1.40526 24.291 1.37643L24.0987 2.20701C25.0364 2.38093 26.0537 2.74913 27.1116 3.41253C27.3124 3.53895 27.1811 3.85031 26.9515 3.79261C26.1655 3.59492 25.0525 3.35314 23.8658 3.21656L23.7201 3.84858C25.3193 3.99873 27.1176 4.52473 29.0065 5.70993C29.2945 5.89064 29.1064 6.33603 28.7778 6.25287C27.4369 5.91605 25.4328 5.4902 23.3771 5.33408L23.0526 6.74239C22.9679 7.11228 22.4427 7.11396 22.3546 6.74408L22.0217 5.33577C19.9719 5.4927 17.9754 5.91692 16.6387 6.25287C16.3101 6.33603 16.122 5.89059 16.4101 5.70993C18.2888 4.53156 20.0777 4.0047 21.6702 3.85113L21.5203 3.21993C20.3446 3.35737 19.2443 3.5966 18.465 3.79256C18.2355 3.85026 18.1042 3.5389 18.3049 3.41248C19.3502 2.75755 20.3547 2.39017 21.2823 2.2137L21.0849 1.37975C20.757 1.40776 20.4318 1.44424 20.1082 1.48832C18.7716 1.67158 17.479 1.99396 16.2457 2.44022C16.0539 2.50673 15.8644 2.57805 15.6763 2.6524C14.7884 1.95234 14.1705 1.47918 13.5185 1.17441C11.1619 0.0727445 8.55714 0.522851 6.8825 2.32087C5.42773 3.88275 5.12349 6.04069 6.10733 7.81855C6.52252 8.56895 7.27655 9.39578 8.00218 10.0459C7.52852 11.1221 7.18511 12.2688 6.99431 13.4666C8.71638 14.986 10.6561 16.2493 11.9749 17.0391C12.2841 17.2241 12.0918 17.7 11.7403 17.6194C9.68624 17.1477 8.07685 16.3375 6.82071 15.3966C6.81816 15.4967 6.8173 15.5968 6.8173 15.697C6.8173 15.9405 6.82321 16.1823 6.83589 16.4224C8.81464 18.8012 11.8986 20.8483 13.7537 21.9597C14.0629 22.1446 13.8706 22.6206 13.5191 22.54C10.6315 21.8774 8.62403 20.5455 7.23912 19.1236C7.36789 19.6394 7.52539 20.1425 7.71009 20.6337C9.36686 23.1211 11.8945 24.9774 14.8566 25.7638C15.8739 26.0336 16.9419 26.1769 18.0431 26.1769C18.4463 26.1769 18.8444 26.1574 19.2375 26.1201C19.24 26.1201 19.2426 26.1192 19.2451 26.1192C19.3628 26.1108 19.4797 26.0972 19.5948 26.0802C19.6008 26.0793 19.6067 26.0785 19.6135 26.0776C20.5427 25.9351 21.3855 25.5304 22.0648 24.9425C22.3029 24.7364 22.5197 24.5073 22.7145 24.2596C22.9153 24.5166 23.1423 24.7534 23.3913 24.9663C24.0029 25.4881 24.7458 25.8622 25.5623 26.0319C25.8257 26.0862 26.0968 26.1201 26.3738 26.1294C26.7329 26.1608 27.0963 26.1769 27.463 26.1769C28.5201 26.1769 29.5467 26.0446 30.5268 25.7952C33.422 25.0588 35.9106 23.3035 37.5911 20.9323C37.8265 20.3469 38.0231 19.742 38.1789 19.121C36.794 20.5437 34.7865 21.8765 31.8972 22.54C31.5457 22.6206 31.3534 22.1446 31.6626 21.9597C33.5176 20.8483 36.6017 18.8012 38.5804 16.4224C38.5931 16.1823 38.599 15.9405 38.599 15.697C38.599 15.5969 38.5982 15.4968 38.5956 15.3966C37.3394 16.3375 35.7309 17.1477 33.676 17.6194C33.3245 17.7 33.1322 17.2241 33.4414 17.0391C34.7602 16.2493 36.7 14.986 38.422 13.4666C38.2316 12.2713 37.8901 11.1265 37.4181 10.0523C38.146 9.40131 38.9036 8.57155 39.3203 7.81855L39.3205 7.8186ZM8.81171 8.48295C8.31363 8.00027 7.84314 7.45502 7.58915 6.99606C6.83508 5.63337 7.36962 4.28545 8.12139 3.47831C9.00582 2.52882 10.7622 1.75835 12.8021 2.71198C13.1376 2.86882 13.5052 3.12036 13.9646 3.46926C11.8428 4.66443 10.064 6.39676 8.81171 8.48295ZM19.6213 15.0335C18.7751 15.4993 18.8988 14.2293 18.7438 14.1546C18.6125 14.0918 16.9447 14.9691 16.151 13.5556C15.8748 13.0636 15.9375 12.4884 15.9121 12.4375C15.8757 12.3645 14.6805 11.8504 15.7122 11.2786C15.7554 11.2548 16.6041 11.0436 16.6694 11.0394C19.7602 10.8061 20.5658 14.5135 19.6213 15.0335V15.0335ZM24.391 20.9332L23.6312 21.9164C23.6074 21.9461 23.5889 21.9792 23.5744 22.0148L23.1043 23.1661C22.9611 23.5156 22.4665 23.5156 22.3242 23.1661L21.854 22.0148C21.8396 21.9792 21.8202 21.9461 21.7973 21.9164L21.0366 20.9332C20.8054 20.6345 21.0527 19.5851 21.4263 19.636L22.7138 20.4309L24.0013 19.636C24.3748 19.5851 24.6221 20.6345 24.3909 20.9332H24.391ZM30.1102 11.9582C30.0509 12.2365 29.6494 12.3145 29.6316 12.3569C29.5275 12.6047 29.486 15.07 26.7204 14.1546C26.7678 14.5822 26.418 15.2422 25.9225 15.1133C25.161 14.9165 25.3169 11.2617 28.1561 11.0394C28.7152 10.9952 30.2805 11.159 30.1102 11.9582V11.9582ZM36.6101 8.48897C35.359 6.40187 33.5803 4.66872 31.4593 3.47234C31.9207 3.12185 32.2895 2.86925 32.6259 2.71198C34.6658 1.7584 36.4221 2.52887 37.3067 3.47831C38.0583 4.2854 38.5929 5.63337 37.8389 6.99606C37.5838 7.45694 37.1105 8.00479 36.6101 8.48897Z" fill="#F78102"/>
<path d="M26.6109 27.3842C25.2183 27.3842 23.8707 27.2027 22.883 26.3899C22.7983 26.3382 22.7136 26.1685 22.7136 26.1685C22.7136 26.1685 22.6289 26.3382 22.5272 26.3908C21.4879 27.2095 20.2513 27.3817 18.8935 27.3817C18.2573 27.3817 17.6017 27.2849 16.9461 27.0949C16.8979 27.0804 16.8436 27.0635 16.7844 27.044C17.4942 28.4319 18.6496 30.11 19.5051 30.5647C20.5308 31.1102 24.7813 31.1349 25.8358 30.6207C26.6727 30.2127 27.8899 28.4574 28.6429 27.0728C28.6201 27.0804 28.5972 27.088 28.5743 27.0948C27.923 27.2874 27.2623 27.3841 26.6109 27.3841V27.3842Z" fill="#F78102"/>
<path d="M4.16549 37.395L3.65617 38.98L3.14681 39.9091L2.84669 39.9911L2.7012 40.1915L1.5734 40.4648L1.33691 41.567L1.07317 41.7127L0.945887 42.0407L0.727602 42.0498L0.827639 41.6945L0.800347 41.5578L0.70031 41.6945L0.609354 42.0589L0 42.0861L0.500187 39.7087L0.409231 39.5994L0.845802 37.896L0.718472 37.8322L0.673018 37.4041L1.00042 37.3585L1.13683 37.2857L1.00042 37.2402L0.691181 37.2857L0.736635 37.1035L1.39144 37.0033L1.53698 36.9304L1.40052 36.8849L0.782089 36.976L0.891208 36.5934L1.42782 36.6025L1.49143 36.4203L3.08305 36.1744L3.06488 36.4203L3.11034 36.5388L3.18308 36.393L3.21037 36.1562L3.41045 36.1197L3.89247 36.6572L3.9743 37.3404L4.16534 37.395L4.16549 37.395ZM0.96405 41.0751L0.945887 40.9202L0.854883 41.0295L0.800299 41.2572L0.83672 41.3939L0.900385 41.2754L0.964001 41.0751L0.96405 41.0751ZM1.49153 39.5175L1.5734 39.0711L1.54611 38.9436L1.46428 39.0984L1.39149 39.5448L1.40057 39.6814L1.49153 39.5175ZM2.79216 38.2877L2.67391 38.151L2.82853 37.4223L2.20097 37.5407L1.84627 39.1439L1.88264 39.2714L2.301 39.1803L2.68299 38.6884L2.79211 38.2876L2.79216 38.2877Z" fill="#F78102"/>
<path d="M7.27597 41.0659L6.94857 41.6489L6.53929 41.822L6.37558 41.3939L6.2483 41.2026L6.23922 41.4941L6.37563 41.8949L6.1301 42.0042L5.9209 41.5396L5.74807 40.8473L5.42066 40.0822L5.28425 40.2735L5.08418 41.6854L4.92951 41.7583L4.66577 41.6581L4.57481 41.8403L4.24741 41.9314L4.40203 41.0023L4.41111 40.7563L4.29286 40.9385L4.12008 41.9678L3.86542 42.0407L3.71075 41.895L4.10187 39.8545L4.32016 39.5812C4.32016 39.5812 4.80218 37.3313 4.77489 37.3495H4.52936L4.59303 37.0306L4.97501 36.9942L5.23875 36.9031L4.98405 36.8758L4.61114 36.9305L4.65664 36.6845L5.49336 36.5843L5.7571 36.5114L5.58427 36.4659C5.58427 36.4659 4.92941 36.5479 4.67476 36.5843L4.72934 36.2928L6.16633 36.1289L7.30321 36.0469L7.86706 37.0853L7.74882 37.6865L7.53053 38.0691L7.64878 38.3697L7.46687 39.1349L6.78477 39.8181L6.99397 40.4557L7.27592 41.066L7.27597 41.0659ZM4.5111 40.3463L4.47473 40.2826L4.41106 40.3555L4.40198 40.4921L4.42019 40.5559L4.48386 40.4921L4.5111 40.3463ZM6.46649 38.4425L6.63932 37.0397L5.97544 37.1855L5.65711 39.0073L6.03905 38.9435L6.46649 38.4425ZM6.92127 41.1571L6.88485 40.9566L6.81211 40.7836L6.67565 40.656L6.69386 40.8564L6.82119 41.0842L6.92123 41.1571H6.92127Z" fill="#F78102"/>
<path d="M11.1775 38.8615L10.9046 40.2552C10.9046 40.2552 10.8591 40.3827 10.8046 40.5558L10.7591 40.6742C10.7409 40.7471 10.7137 40.8291 10.6864 40.9019L9.94968 41.2663L9.85867 41.3574L10.0406 41.321L10.6409 41.0203C10.5954 41.1752 10.5499 41.2936 10.5499 41.3119C10.5317 41.3483 9.94963 41.7673 9.94963 41.7673C9.94963 41.7673 8.96737 42.1681 8.94008 42.1499C8.92187 42.1408 8.68537 42.0132 8.43984 41.8857L8.5308 41.4121L8.54901 41.2025L8.42168 41.4121C8.42168 41.4121 8.38531 41.6307 8.34893 41.8311C8.28527 41.8037 8.23069 41.7673 8.1761 41.74L8.31256 40.9839L8.33072 40.7835L8.20344 40.9839C8.20344 40.9839 8.12157 41.4758 8.0852 41.6944C7.98516 41.6398 7.91236 41.5942 7.90328 41.5942C7.8942 41.5852 7.78503 41.0477 7.78503 41.0477C7.78503 41.0477 7.83962 40.5103 7.85783 40.4829C7.87604 40.4556 8.01245 39.7451 8.01245 39.7451L7.8942 39.4627L7.96699 39.0619L8.59456 37.1034L9.13117 36.9395L9.23121 36.8302L9.05837 36.8393L8.63093 36.9668L8.73097 36.6662C8.73097 36.6662 8.95829 36.6025 9.26753 36.5205L9.32211 36.3747C9.32211 36.3747 10.4135 36.0468 10.4408 36.0559C10.459 36.065 10.4954 36.1288 10.5408 36.1925C10.8591 36.1106 11.0865 36.0468 11.1047 36.0377C11.1411 36.0104 11.2411 36.4749 11.2411 36.4749L11.5049 36.6571L11.3958 36.903L11.5322 37.404L11.3594 38.7158L11.1775 38.8615ZM8.84014 40.1914L8.8583 40.0001L8.83106 39.8817L8.76739 39.9819L8.73102 40.2552L8.76739 40.3372L8.84018 40.1914H8.84014ZM10.1225 38.3604L10.1134 37.823L10.1953 37.5315L10.1316 37.3949L9.95876 37.5315C9.9133 37.5497 9.49494 37.7774 9.49494 37.7774L9.21304 39.071L9.19483 39.5446L9.05837 39.7724L9.01292 40.6833L9.15846 40.8564L9.50403 40.7471L9.62227 40.2461L9.74052 40.1641L10.1225 38.3604ZM9.36761 37.2582L9.62227 37.1853L9.7041 37.0942L9.57682 37.1033L9.35853 37.158L9.24029 37.2582H9.36761V37.2582Z" fill="#F78102"/>
<path d="M15.2519 37.1398L14.9608 37.2127L14.879 37.4223L14.497 37.4678C14.5152 37.5043 14.1333 39.9637 14.1333 39.9637L13.9331 40.1914L13.9059 40.8838L13.4875 41.2299L13.4602 41.5487L12.9964 41.9859L12.6054 42.0132L12.5326 41.8493L12.4416 41.7491L12.4234 41.904C12.4234 41.904 12.4416 41.9495 12.4688 42.0224L11.9141 42.0497L11.0955 40.4738L11.3684 40.2825L11.5139 40.6196L11.6503 40.7198L11.623 40.5558L11.4684 40.2097L11.4957 40.1914L11.4593 39.909L11.9595 39.5083L12.0868 39.6176L12.5688 40.4829L12.7507 40.3918L12.9781 38.9252L13.1327 38.7885L13.2964 37.7137L12.6507 37.8321L12.6871 37.5588L13.0872 37.495L13.2509 37.413L13.1145 37.3948L12.6962 37.4495L12.7052 37.3857L12.4779 37.3948L12.587 36.739L14.7334 36.329L15.3973 36.2106L15.3519 36.4565L14.6242 36.6023L14.4696 36.7116L14.5969 36.7298L15.3336 36.584L15.3154 36.7844L14.8607 36.8664L14.697 36.9393L14.8334 36.9666L15.2972 36.8664L15.2518 37.1397L15.2519 37.1398ZM11.8322 40.9566L11.7867 40.8291L11.7231 40.8109L11.7049 40.8929L11.7504 40.9931L11.814 41.0295L11.8322 40.9566ZM13.1783 39.7998L13.251 39.4445L13.2147 39.317L13.1419 39.4809L13.0691 39.8089L13.1055 39.9728L13.1783 39.7998Z" fill="#F78102"/>
<path d="M17.7348 40.8931L17.7166 41.1208L17.7075 41.139L17.4256 41.2028L17.3165 41.2848L17.4166 41.2938L17.6712 41.2392L17.5439 41.5944L15.0155 42.0955V41.8313L14.6881 41.804L14.7427 40.975L15.0064 40.8657L15.2338 40.0004L15.0701 39.9639L15.2065 39.4356L15.3884 39.3263L15.4066 39.2261L15.2702 39.1806L15.2975 38.9984L15.4521 38.9711L15.7067 37.6685L15.4885 37.6503L15.4975 37.2677L15.7613 37.2221L15.8704 37.1129H15.7067L15.4884 37.1584L15.5066 36.8851L15.6612 36.8122L15.7522 36.4387L17.4256 36.1654L17.6258 36.211L18.6535 36.0561L18.7535 36.4933L18.5989 36.6391L18.5716 36.7848L17.7713 36.9215L17.6713 37.0126H17.9623L18.5535 36.885L18.4898 37.1948L16.971 37.4863L16.7436 38.3972L16.68 38.7616C16.8619 38.7343 17.0256 38.7069 17.0256 38.7069L17.1438 38.5885L18.0078 38.461L18.0988 38.7252L18.0533 38.8345L17.7532 38.8891L17.5804 38.9803L17.6714 39.0167L18.0078 38.9529L17.9078 39.208L17.8078 39.2809L17.6168 39.6362L16.9347 39.7637L16.7436 39.791L16.4526 39.8547L16.4435 39.9094L16.2616 40.6473L16.9893 40.4742L16.9983 40.5926L17.7805 40.4833L17.7532 40.7748L17.1893 40.8933L16.971 40.9844L17.153 41.0116L17.735 40.8933L17.7348 40.8931ZM15.4338 40.3921L15.4702 40.055L15.4338 39.9639L15.361 40.055L15.3337 40.3921L15.361 40.4923L15.4338 40.3921ZM17.1528 39.0621L17.2346 39.1077L17.3801 39.0712L17.4529 38.9983L17.3892 38.9619L17.2074 38.9983L17.1528 39.0621V39.0621Z" fill="#F78102"/>
<path d="M21.1546 40.0274L21.8003 41.157L21.7094 41.3938L21.6184 41.4576L21.3547 40.9839L21.2182 40.8472L21.2273 41.0477L21.5002 41.5486L21.4547 41.6853L21.3819 41.7308L21.2455 41.412L21.1364 41.3118L21.1182 41.494L21.3183 41.913L20.809 41.9768L20.4088 41.157L20.2633 41.166L19.7722 40.0729L19.4448 41.7581L19.1628 41.8493L18.9081 42.1043L18.6899 42.0588L18.7353 41.4485L18.6989 41.3027L18.5989 41.4849L18.5535 42.0314L18.2169 41.9586L18.3624 41.157L18.5535 40.9383L18.4534 40.7288L18.8263 38.6701L18.699 38.6246C18.699 38.6246 19.1356 36.8665 19.1446 36.8301L19.2901 36.6024L19.663 36.5295L19.7812 36.3473L20.0723 36.4657L19.9541 37.0396L19.9632 37.2035L20.0814 37.0032L20.1814 36.5112L20.4907 36.6388L20.2633 37.9778L20.0178 38.3422L19.9905 38.6519L20.8 37.7592L20.7909 37.577L21.4185 36.7572L21.9824 36.3472L22.528 36.4565C22.4825 36.7116 22.5008 36.7207 22.5008 36.7207L22.0733 37.2126L21.9915 37.3766L22.1643 37.2764L22.5736 36.8118C22.6372 36.8938 22.71 37.0122 22.71 37.0122L21.5095 38.5334L21.2548 38.5881L21.0366 39.1711L20.9092 39.2075L20.8001 39.3259L21.0002 39.6175L21.1548 40.0274L21.1546 40.0274ZM19.3629 40.7015L19.4266 40.2825L19.3448 40.2734L19.2811 40.492L19.2447 40.7836L19.2993 40.8564L19.3629 40.7015ZM21.5002 37.9597L21.6366 37.8777L21.7913 37.7046L21.8277 37.5771L21.6821 37.65L21.5367 37.8231L21.5003 37.9597L21.5002 37.9597Z" fill="#F78102"/>
<path d="M26.1291 36.8393L26.02 37.0124L25.9654 37.2219C25.9654 37.2219 25.5653 37.2948 25.1015 37.3676L24.8832 38.4972L24.7559 38.7705L24.4557 39.8636L24.5285 40.0276L24.2192 41.3029L23.9828 41.4486L23.7918 41.9769L23.6371 41.9952L23.7645 41.312L23.7917 41.1025L23.6826 41.3029L23.5371 42.0134L23.1915 42.0589L23.1551 41.6308L22.9914 41.6035L23.1551 40.5104L23.3552 40.3555L23.2734 40.146L23.5644 38.3515L23.8009 37.9689L23.8191 37.5772C23.7736 37.5772 23.7463 37.5863 23.7372 37.5863L22.9551 37.7138V37.3585L23.3189 37.2948L23.4826 37.1855L23.3462 37.1764L22.9005 37.2675L22.8278 37.1764L22.9824 36.6298L24.1556 36.4112L24.2375 36.2381L26.0928 36.0924L26.1746 36.3748C26.0019 36.4021 25.538 36.4659 25.538 36.4659L25.3925 36.5479L25.529 36.5661L26.202 36.4841L26.2384 36.6481L26.1838 36.73C26.0474 36.7483 25.92 36.7665 25.92 36.7665L25.7654 36.8485L25.9109 36.8667L26.1292 36.8394L26.1291 36.8393ZM23.9191 40.6743V40.5194L23.8281 40.6561L23.7827 40.8292L23.8099 40.9203L23.8918 40.8292L23.919 40.6743H23.9191ZM24.1646 38.069L24.1555 37.9506L24.0646 38.069L23.9828 38.4698V38.6156L24.0646 38.4789L24.1646 38.069V38.069Z" fill="#F78102"/>
<path d="M31.2403 36.8393L31.1312 37.0124L31.0766 37.2219C31.0766 37.2219 30.6765 37.2948 30.2127 37.3676L29.9944 38.4972L29.8671 38.7705L29.5669 39.8636L29.6397 40.0276L29.3305 41.3029L29.094 41.4486L28.903 41.9769L28.7483 41.9952L28.8757 41.312L28.9029 41.1025L28.7938 41.3029L28.6483 42.0134L28.3027 42.0589L28.2663 41.6308L28.1026 41.6035L28.2663 40.5104L28.4664 40.3555L28.3846 40.146L28.6756 38.3515L28.9121 37.9689L28.9303 37.5772C28.8848 37.5772 28.8575 37.5863 28.8484 37.5863L28.0663 37.7138V37.3585L28.4301 37.2948L28.5938 37.1855L28.4574 37.1764L28.0117 37.2675L27.939 37.1764L28.0936 36.6298L29.2668 36.4112L29.3487 36.2381L31.204 36.0924L31.2858 36.3748C31.1131 36.4021 30.6492 36.4659 30.6492 36.4659L30.5037 36.5479L30.6402 36.5661L31.3132 36.4841L31.3496 36.6481L31.295 36.73C31.1586 36.7483 31.0312 36.7665 31.0312 36.7665L30.8766 36.8485L31.0221 36.8667L31.2404 36.8394L31.2403 36.8393ZM29.0303 40.6743V40.5194L28.9393 40.6561L28.8939 40.8292L28.9211 40.9203L29.003 40.8292L29.0303 40.6743ZM29.2758 38.069L29.2667 37.9506L29.1758 38.069L29.094 38.4698V38.6156L29.1758 38.4789L29.2758 38.069V38.069Z" fill="#F78102"/>
<path d="M32.6688 38.397L32.0776 40.9021L31.9139 41.4668L31.5137 41.6035L31.4137 41.9041L31.2226 41.9223L31.3409 41.3575L31.3136 41.2027L31.2226 41.3848L31.1135 41.9314L30.8134 41.9587L30.7134 41.3575L30.9226 40.319L31.1044 40.1004L31.441 38.3697L31.3227 38.2877L31.6775 36.5479L31.8503 36.4932L31.7957 36.7209L31.8321 36.8666L31.9231 36.6935L31.9685 36.4567L32.1231 36.4111L32.0322 36.8575L32.0685 37.0032L32.1595 36.8301L32.2505 36.3747L32.3687 36.3382L32.4506 36.156L33.0599 36.2562L33.0145 36.5933L32.769 37.905L32.5689 38.2603L32.6689 38.3969L32.6688 38.397ZM32.0412 39.3353L31.9957 39.2169L31.9412 39.3626L31.8684 39.6268L31.8775 39.7634L31.9684 39.6086L32.0412 39.3353ZM32.0776 37.1856L32.0503 37.1309L31.9867 37.2037L31.9685 37.3313L31.9867 37.395L32.0503 37.3313L32.0776 37.1856Z" fill="#F78102"/>
<path d="M35.9971 39.8455L36.0699 39.9184L35.7607 41.1482L35.2786 41.5034L35.0694 41.5307L35.0149 41.7493L33.9689 42.1228L33.5233 41.9407L34.1053 41.722L34.2782 41.6127L34.0781 41.6401L33.3869 41.886L33.1231 41.7767L32.7411 40.6563L32.8958 40.383L32.7411 40.2464L33.3505 38.1967L33.2232 38.1239L33.7052 36.7575L34.5966 36.5298L34.7239 36.384L35.4787 36.2383L35.6243 36.6118L35.7243 36.6755V36.548L35.6061 36.211L35.7879 36.1746L35.8698 36.4022L35.9698 36.466L35.9789 36.3385L35.9061 36.1563L36.1244 36.1108L36.6156 37.1947L36.3973 37.9417L36.2063 37.9508L35.9061 38.3243L35.2058 38.1512L35.3331 37.632L35.1421 37.3769L34.6783 37.6775L34.4964 38.552L34.3782 38.6158L34.0144 40.6198L34.169 40.8202L34.8693 40.5378L35.0512 39.8729L34.7511 39.9093L34.6874 39.7271L34.551 39.6542V39.3536L34.8147 39.2716L34.9148 39.2079L34.7874 39.1714C34.7874 39.1714 34.6692 39.1988 34.5782 39.217L34.7419 38.9346L36.2244 38.6431L36.3518 38.88L36.1972 38.9619L36.1699 39.1259L36.2244 39.1441L36.2427 39.2716L35.8425 39.3354L35.7333 39.4083L35.8516 39.4447L36.2609 39.3627L36.2791 39.5267L35.9971 39.8455ZM33.8235 37.4225L33.687 37.5136C33.687 37.5136 33.587 37.7869 33.587 37.8051L33.5779 37.8962L33.687 37.796L33.7962 37.5409L33.8234 37.4225L33.8235 37.4225ZM34.6875 41.4487L34.6056 41.4396L34.4783 41.5034L34.4237 41.5581L34.5056 41.5763L34.642 41.5216L34.6875 41.4487Z" fill="#F78102"/>
<path d="M39.8445 41.0659L39.5171 41.6489L39.1078 41.822L38.9441 41.3939L38.8168 41.2026L38.8078 41.4941L38.9442 41.8949L38.6986 42.0042L38.4894 41.5396L38.3166 40.8473L37.9892 40.0822L37.8528 40.2735L37.6527 41.6854L37.4981 41.7583L37.2343 41.6581L37.1434 41.8403L36.816 41.9314L36.9706 41.0023L36.9797 40.7563L36.8614 40.9385L36.6886 41.9678L36.434 42.0407L36.2793 41.895L36.6704 39.8545L36.8887 39.5812C36.8887 39.5812 37.3707 37.3313 37.3434 37.3495H37.0979L37.1616 37.0306L37.5436 36.9942L37.8073 36.9031L37.5526 36.8758L37.1797 36.9305L37.2252 36.6845L38.0619 36.5843L38.3256 36.5114L38.1528 36.4659C38.1528 36.4659 37.498 36.5479 37.2433 36.5843L37.2979 36.2928L38.7349 36.1289L39.8718 36.0469L40.4356 37.0853L40.3174 37.6865L40.0991 38.0691L40.2173 38.3697L40.0354 39.1349L39.3533 39.8181L39.5625 40.4557L39.8445 41.066L39.8445 41.0659ZM37.0797 40.3463L37.0433 40.2826L36.9797 40.3555L36.9706 40.4921L36.9888 40.5559L37.0524 40.4921L37.0797 40.3463ZM39.0351 38.4425L39.2079 37.0397L38.544 37.1855L38.2257 39.0073L38.6076 38.9435L39.0351 38.4425ZM39.4899 41.1571L39.4534 40.9566L39.3807 40.7836L39.2442 40.656L39.2624 40.8564L39.3898 41.0842L39.4898 41.1571H39.4899Z" fill="#F78102"/>
<path d="M42.1357 38.397L41.5446 40.9021L41.3809 41.4668L40.9807 41.6035L40.8807 41.9041L40.6896 41.9223L40.8079 41.3575L40.7806 41.2027L40.6896 41.3848L40.5805 41.9314L40.2804 41.9587L40.1804 41.3575L40.3896 40.319L40.5714 40.1004L40.908 38.3697L40.7897 38.2877L41.1445 36.5479L41.3172 36.4932L41.2627 36.7209L41.2991 36.8666L41.39 36.6935L41.4355 36.4567L41.5901 36.4111L41.4992 36.8575L41.5355 37.0032L41.6265 36.8301L41.7175 36.3747L41.8357 36.3382L41.9176 36.156L42.5269 36.2562L42.4815 36.5933L42.2359 37.905L42.0359 38.2603L42.1359 38.3969L42.1357 38.397ZM41.5082 39.3353L41.4627 39.2169L41.4081 39.3626L41.3354 39.6268L41.3444 39.7634L41.4354 39.6086L41.5082 39.3353ZM41.5446 37.1856L41.5173 37.1309L41.4536 37.2037L41.4354 37.3313L41.4536 37.395L41.5173 37.3313L41.5446 37.1856Z" fill="#F78102"/>
<path d="M45.4013 40.574L44.8192 41.5851L44.51 41.8857L44.2917 41.8493L44.4463 41.6398L44.4827 41.4667L44.3372 41.5941L44.1553 41.8583L43.0185 42.1224L42.3909 41.995L42.3363 41.5395L42.1817 41.4028L42.3272 40.583L42.5819 40.5557L42.5728 40.6377L42.591 40.8654L42.6637 40.6468L42.6819 40.5466L42.8093 40.5375L42.7638 40.8836L42.7911 41.1114L42.8639 40.8927L42.9184 40.5283L43.2822 40.4919L43.364 40.8381L44.0189 40.7561L44.3008 40.3097L43.2094 39.5901L43.2458 39.3897C43.2458 39.3897 42.6001 39.1256 42.5637 39.1256C42.5273 39.1256 42.7547 38.3695 42.7547 38.3695L42.6001 38.2693L42.9548 37.0577L43.4095 36.994L43.5642 36.9029L43.3823 36.8755L43.1731 36.912L43.264 36.5477L43.928 36.4201L44.0098 36.247L45.6287 36.1378L45.7015 36.5021L46.038 36.6661L45.6833 37.8685L45.556 38.1691L45.3831 38.1873L45.5286 37.6863L45.4923 37.5223L45.4104 37.6863L45.2558 38.2147L45.0739 38.4424L44.6282 38.3057L44.7283 37.4859L44.0462 37.6225L43.7643 38.2784L43.9916 38.5243L45.3649 39.3715L45.3286 39.6266H45.5741L45.4013 40.574ZM44.0188 36.903L44.0825 36.8392L43.9643 36.7937L43.7914 36.8028L43.7005 36.8847L43.7732 36.9485L44.0188 36.903ZM44.228 39.0892L44.1735 38.9799L43.9188 38.8068H43.8369L43.9188 38.907L44.128 39.0709L44.228 39.0892Z" fill="#F78102"/>
</svg>
