<?xml version="1.0" encoding="UTF-8"?>
<svg id="Layer_1" xmlns="http://www.w3.org/2000/svg" version="1.1" viewBox="0 0 47 43">
  <!-- Generator: Adobe Illustrator 29.0.0, SVG Export Plug-In . SVG Version: 2.1.0 Build 186)  -->
  <defs>
    <style>
      .st0 {
        fill: #f78102;
      }
    </style>
  </defs>
  <path class="st0" d="M39.3,7.8c1-1.8.7-3.9-.8-5.5-1.7-1.8-4.3-2.2-6.6-1.1-.7.3-1.3.8-2.2,1.5,0,0,0,0,0,0,0,0,0,0-.1,0-1.3-.5-2.7-.9-4.2-1.1-.4,0-.7,0-1.1-.1l-.2.8c.9.2,2,.5,3,1.2.2.1,0,.4-.2.4-.8-.2-1.9-.4-3.1-.6v.6c1.5.2,3.3.7,5.1,1.9.3.2,0,.6-.2.5-1.3-.3-3.3-.8-5.4-.9l-.3,1.4c0,.4-.6.4-.7,0l-.3-1.4c-2,.2-4,.6-5.4.9-.3,0-.5-.4-.2-.5,1.9-1.2,3.7-1.7,5.3-1.9v-.6c-1.3.1-2.4.4-3.2.6-.2,0-.4-.3-.2-.4,1-.7,2-1,3-1.2l-.2-.8c-.3,0-.7,0-1,.1-1.3.2-2.6.5-3.9,1-.2,0-.4.1-.6.2-.9-.7-1.5-1.2-2.2-1.5-2.4-1.1-5-.7-6.6,1.1-1.5,1.6-1.8,3.7-.8,5.5.4.8,1.2,1.6,1.9,2.2-.5,1.1-.8,2.2-1,3.4,1.7,1.5,3.7,2.8,5,3.6.3.2.1.7-.2.6-2.1-.5-3.7-1.3-4.9-2.2,0,.1,0,.2,0,.3,0,.2,0,.5,0,.7,2,2.4,5.1,4.4,6.9,5.5.3.2.1.7-.2.6-2.9-.7-4.9-2-6.3-3.4.1.5.3,1,.5,1.5,1.7,2.5,4.2,4.3,7.1,5.1,1,.3,2.1.4,3.2.4s.8,0,1.2,0c0,0,0,0,0,0,.1,0,.2,0,.3,0,0,0,0,0,0,0,.9-.1,1.8-.5,2.5-1.1.2-.2.5-.4.6-.7.2.3.4.5.7.7.6.5,1.4.9,2.2,1.1.3,0,.5,0,.8,0,.4,0,.7,0,1.1,0,1.1,0,2.1-.1,3.1-.4,2.9-.7,5.4-2.5,7.1-4.9.2-.6.4-1.2.6-1.8-1.4,1.4-3.4,2.8-6.3,3.4-.4,0-.5-.4-.2-.6,1.9-1.1,4.9-3.2,6.9-5.5,0-.2,0-.5,0-.7s0-.2,0-.3c-1.3.9-2.9,1.8-4.9,2.2-.4,0-.5-.4-.2-.6,1.3-.8,3.3-2.1,5-3.6-.2-1.2-.5-2.3-1-3.4.7-.7,1.5-1.5,1.9-2.2h0ZM8.8,8.5c-.5-.5-1-1-1.2-1.5-.8-1.4-.2-2.7.5-3.5.9-.9,2.6-1.7,4.7-.8.3.2.7.4,1.2.8-2.1,1.2-3.9,2.9-5.2,5ZM19.6,15c-.8.5-.7-.8-.9-.9-.1,0-1.8.8-2.6-.6-.3-.5-.2-1.1-.2-1.1,0,0-1.2-.6-.2-1.2,0,0,.9-.2,1-.2,3.1-.2,3.9,3.5,3,4h0ZM24.4,20.9l-.8,1s0,0,0,0l-.5,1.2c-.1.3-.6.3-.8,0l-.5-1.2s0,0,0,0l-.8-1c-.2-.3,0-1.3.4-1.3l1.3.8,1.3-.8c.4,0,.6,1,.4,1.3h0ZM30.1,12c0,.3-.5.4-.5.4-.1.2-.1,2.7-2.9,1.8,0,.4-.3,1.1-.8,1-.8-.2-.6-3.9,2.2-4.1.6,0,2.1.1,2,.9h0ZM36.6,8.5c-1.3-2.1-3-3.8-5.2-5,.5-.4.8-.6,1.2-.8,2-1,3.8-.2,4.7.8.8.8,1.3,2.2.5,3.5-.3.5-.7,1-1.2,1.5Z"/>
  <path class="st0" d="M26.6,27.4c-1.4,0-2.7-.2-3.7-1,0,0-.2-.2-.2-.2,0,0,0,.2-.2.2-1,.8-2.3,1-3.6,1s-1.3,0-1.9-.3c0,0-.1,0-.2,0,.7,1.4,1.9,3.1,2.7,3.5,1,.5,5.3.6,6.3,0,.8-.4,2.1-2.2,2.8-3.5,0,0,0,0,0,0-.7.2-1.3.3-2,.3h0Z"/>
  <path class="st0" d="M4.2,37.4l-.5,1.6-.5.9h-.3c0,0-.1.3-.1.3l-1.1.3-.2,1.1h-.3c0,.1-.1.5-.1.5h-.2s.1-.3.1-.3h0c0-.1-.1,0-.1,0v.4c0,0-.7,0-.7,0l.5-2.4h0c0-.1.4-1.8.4-1.8h-.1c0,0,0-.5,0-.5h.3s.1-.1.1-.1h-.1s-.3,0-.3,0v-.2s.7-.1.7-.1h.1c0,0-.1-.1-.1-.1h-.6c0,0,.1-.3.1-.3h.5s0-.2,0-.2l1.6-.2v.2s0,.1,0,.1h0c0-.1,0-.4,0-.4h.2s.5.5.5.5v.7c0,0,.3,0,.3,0h0ZM1,41.1v-.2s-.1.1-.1.1v.2c0,0,0,.1,0,.1h0c0-.1,0-.3,0-.3h0ZM1.5,39.5v-.4c0,0,0-.1,0-.1v.2c0,0-.2.4-.2.4h0c0,.1,0,0,0,0ZM2.8,38.3h-.1c0-.1.2-.9.2-.9h-.6c0,.1-.4,1.7-.4,1.7h0c0,.1.4,0,.4,0l.4-.5v-.4q.1,0,.1,0Z"/>
  <path class="st0" d="M7.3,41.1l-.3.6-.4.2-.2-.4v-.2c-.1,0-.1.3-.1.3v.4c.1,0-.1.1-.1.1l-.2-.5-.2-.7-.3-.8v.2c-.1,0-.3,1.4-.3,1.4h-.2c0,0-.3,0-.3,0v.2c0,0-.4,0-.4,0l.2-.9v-.2s-.1.2-.1.2l-.2,1h-.3c0,0-.2,0-.2,0l.4-2,.2-.3s.5-2.2.5-2.2h-.2v-.3c0,0,.4,0,.4,0h.3c0,0-.3-.1-.3-.1h-.4c0,0,0-.2,0-.2h.8c0-.1.3-.2.3-.2h-.2s-.7,0-.9,0v-.3c0,0,1.5-.2,1.5-.2h1.1c0,0,.6,1,.6,1v.6c-.1,0-.3.4-.3.4v.3c.1,0,0,.8,0,.8l-.7.7.2.6.3.6h0ZM4.5,40.3h0c0,0,0,0,0,0h0c0,.1,0,.2,0,.2h0c0,0,0-.2,0-.2ZM6.5,38.4l.2-1.4h-.7c0,.1-.3,2-.3,2h.4c0,0,.4-.6.4-.6ZM6.9,41.2v-.2s-.1-.2-.1-.2h-.1c0-.1,0,0,0,0v.2c.1,0,.2,0,.2,0h0Z"/>
  <path class="st0" d="M11.2,38.9l-.3,1.4s0,.1-.1.3h0c0,.2,0,.3,0,.3l-.7.4h0c0,0,.2,0,.2,0l.6-.3c0,.2,0,.3,0,.3,0,0-.6.5-.6.5,0,0-1,.4-1,.4,0,0-.3-.1-.5-.3v-.5c0,0,.1-.2.1-.2v.2c-.1,0-.2.2-.2.4,0,0-.1,0-.2,0v-.8c.1,0,.2-.2.2-.2v.2c-.1,0-.2.5-.2.7-.1,0-.2-.1-.2-.1,0,0-.1-.5-.1-.5,0,0,0-.5,0-.6,0,0,.2-.7.2-.7v-.3c-.1,0,0-.4,0-.4l.6-2,.5-.2h.1c0-.1-.2-.1-.2-.1h-.4c0,.1.1-.2.1-.2,0,0,.2,0,.5-.1h0c0-.1,1.1-.5,1.1-.5,0,0,0,0,.1.1.3,0,.5-.1.6-.2,0,0,.1.4.1.4l.3.2v.2c-.1,0,0,.5,0,.5l-.2,1.3h-.2ZM8.8,40.2v-.2s0-.1,0-.1h0c0,.1,0,.4,0,.4h0c0,0,0,0,0,0h0ZM10.1,38.4v-.5s0-.3,0-.3h0c0-.1-.2,0-.2,0,0,0-.5.2-.5.2l-.3,1.3v.5s-.2.2-.2.2v.9s.1.2.1.2h.3c0-.1.1-.6.1-.6h.1c0,0,.4-1.9.4-1.9ZM9.4,37.3h.3c0,0,0-.2,0-.2h-.1s-.2,0-.2,0h-.1c0,.1.1.1.1.1h0Z"/>
  <path class="st0" d="M15.3,37.1h-.3c0,0,0,.3,0,.3h-.4c0,0-.4,2.5-.4,2.5l-.2.2v.7s-.4.3-.4.3v.3s-.5.4-.5.4h-.4s0-.1,0-.1h0c0-.1,0,0,0,0,0,0,0,0,0,.1h-.6s-.8-1.5-.8-1.5l.3-.2v.3c.1,0,.3.1.3.1v-.2s-.2-.3-.2-.3h0s0-.3,0-.3l.5-.4h.1c0,.1.5,1,.5,1h.2c0,0,.2-1.6.2-1.6h.2c0-.1.2-1.2.2-1.2h-.6c0,.1,0-.2,0-.2h.4c0,0,.2-.1.2-.1h-.1s-.4,0-.4,0h0c0,0-.2,0-.2,0v-.7c.1,0,2.3-.4,2.3-.4h.7c0-.1,0,.1,0,.1h-.7c0,.1-.2.3-.2.3h.1s.7-.1.7-.1v.2s-.5,0-.5,0h-.2c0,0,.1.1.1.1h.5c0-.1,0,.2,0,.2h0ZM11.8,41h0c0-.1,0-.1,0-.1h0c0,0,0,.2,0,.2h0s0,0,0,0ZM13.2,39.8v-.4c0,0,0-.1,0-.1v.2c0,0-.1.3-.1.3v.2s.1-.2.1-.2Z"/>
  <path class="st0" d="M17.7,40.9v.2s0,0,0,0h-.3c0,0-.1.1-.1.1h.1s.3,0,.3,0v.4c-.1,0-2.7.5-2.7.5v-.3h-.3s0-.9,0-.9h.3c0-.1.2-1,.2-1h-.2s.1-.6.1-.6h.2c0-.1,0-.2,0-.2h-.1s0-.2,0-.2h.2s.3-1.3.3-1.3h-.2s0-.4,0-.4h.3s.1-.2.1-.2h-.4s0-.2,0-.2h.2c0,0,0-.4,0-.4l1.7-.3h.2s1-.1,1-.1v.4c.1,0,0,.1,0,.1h0c0,.1-.8.3-.8.3h0c0,0,.3,0,.3,0h.6c0-.1,0,.2,0,.2l-1.5.3-.2.9v.4c.1,0,.3,0,.3,0h.1c0-.1.9-.2.9-.2v.3c0,0,0,.1,0,.1h-.3c0,0-.2.1-.2.1h0s.3,0,.3,0v.3c0,0-.2,0-.2,0l-.2.4h-.7c0,.1-.2.2-.2.2h-.3c0,0,0,.1,0,.1l-.2.7.7-.2h0c0,.1.8,0,.8,0v.3s-.6.1-.6.1h-.2c0,0,.2.1.2.1h.6c0-.1,0-.1,0-.1ZM15.4,40.4v-.3s0,0,0,0h0c0,0,0,.4,0,.4h0c0,.1,0,0,0,0ZM17.2,39.1h0s.1,0,.1,0h0c0,0,0-.1,0-.1h-.2s0,.1,0,.1h0Z"/>
  <path class="st0" d="M21.2,40l.6,1.1v.2c0,0-.2,0-.2,0l-.3-.5h-.1c0-.1,0,0,0,0l.3.5h0c0,.1,0,.2,0,.2v-.3c-.1,0-.2-.1-.2-.1v.2s.2.4.2.4h-.5c0,0-.4-.8-.4-.8h-.1s-.5-1.1-.5-1.1l-.3,1.7h-.3c0,0-.3.3-.3.3h-.2s0-.7,0-.7h0c0-.1-.1,0-.1,0v.5s-.4,0-.4,0v-.8c.1,0,.3-.2.3-.2v-.2c-.1,0,.3-2.1.3-2.1h-.1s.4-1.8.4-1.8v-.2c.1,0,.5,0,.5,0v-.2c.1,0,.4.1.4.1v.6c-.1,0-.1.2-.1.2v-.2c.1,0,.2-.5.2-.5h.3c0,.1-.2,1.5-.2,1.5l-.2.4v.3s.8-.9.8-.9v-.2s.6-.8.6-.8l.6-.4h.5c0,.4,0,.4,0,.4l-.4.5v.2c0,0,0-.1,0-.1l.4-.5c0,0,.1.2.1.2l-1.2,1.5h-.3c0,0-.2.6-.2.6h-.1s-.1.2-.1.2l.2.3.2.4h0ZM19.4,40.7v-.4c0,0,0,0,0,0v.2c0,0-.1.3-.1.3h0c0,0,0,0,0,0ZM21.5,38h.1c0,0,.2-.3.2-.3h0c0-.1-.1,0-.1,0v.2c-.1,0-.2.1-.2.1h0Z"/>
  <path class="st0" d="M26.1,36.8v.2c-.1,0-.2.2-.2.2,0,0-.4,0-.9.1l-.2,1.1v.3c-.1,0-.4,1.1-.4,1.1v.2c0,0-.2,1.3-.2,1.3h-.2c0,.1-.2.7-.2.7h-.2s.1-.7.1-.7v-.2s0,.2,0,.2v.7c-.1,0-.5,0-.5,0v-.4s-.2,0-.2,0l.2-1.1.2-.2v-.2c0,0,.2-1.8.2-1.8l.2-.4v-.4s0,0,0,0h-.8c0,.1,0-.2,0-.2h.4c0,0,.2-.2.2-.2h-.1s-.4,0-.4,0h0c0,0,.2-.6.2-.6l1.2-.2v-.2c0,0,1.9-.1,1.9-.1v.3c0,0-.6,0-.6,0h-.1c0,0,.1.1.1.1h.7c0,0,0,0,0,0h0c-.1.1-.3.1-.3.1h-.2c0,0,.1.1.1.1h.2s0,0,0,0ZM23.9,40.7v-.2h0c0,.1,0,.3,0,.3h0c0,0,0,0,0,0v-.2h0ZM24.2,38.1h0c0-.1,0,0,0,0v.4c0,0,0,.1,0,.1h0c0-.1.1-.5.1-.5h0Z"/>
  <path class="st0" d="M31.2,36.8v.2c-.1,0-.2.2-.2.2,0,0-.4,0-.9.1l-.2,1.1v.3c-.1,0-.4,1.1-.4,1.1v.2c0,0-.2,1.3-.2,1.3h-.2c0,.1-.2.7-.2.7h-.2s.1-.7.1-.7v-.2s0,.2,0,.2v.7c-.1,0-.5,0-.5,0v-.4s-.2,0-.2,0l.2-1.1.2-.2v-.2c0,0,.2-1.8.2-1.8l.2-.4v-.4s0,0,0,0h-.8c0,.1,0-.2,0-.2h.4c0,0,.2-.2.2-.2h-.1s-.4,0-.4,0h0c0,0,.2-.6.2-.6l1.2-.2v-.2c0,0,1.9-.1,1.9-.1v.3c0,0-.6,0-.6,0h-.1c0,0,.1.1.1.1h.7c0,0,0,0,0,0h0c-.1.1-.3.1-.3.1h-.2c0,0,.1.1.1.1h.2s0,0,0,0ZM29,40.7v-.2h0c0,.1,0,.3,0,.3h0c0,0,0,0,0,0v-.2ZM29.3,38.1h0c0-.1,0,0,0,0v.4c0,0,0,.1,0,.1h0c0-.1.1-.5.1-.5h0Z"/>
  <path class="st0" d="M32.7,38.4l-.6,2.5-.2.6h-.4c0,.1-.1.4-.1.4h-.2s.1-.5.1-.5v-.2s-.1.2-.1.2v.5c-.1,0-.4,0-.4,0v-.6c-.1,0,.1-1,.1-1l.2-.2.3-1.7h-.1c0,0,.4-1.8.4-1.8h.2c0,0,0,.2,0,.2h0c0,.1,0,0,0,0v-.2s.2,0,.2,0v.4c0,0,0,.1,0,.1v-.2c0,0,.2-.5.2-.5h.1s0-.2,0-.2h.6c0,.1,0,.4,0,.4l-.2,1.3-.2.4h0q0,.1,0,.1ZM32,39.3h0c0-.1,0,0,0,0v.3c0,0,0,.1,0,.1v-.2c0,0,.2-.3.2-.3ZM32.1,37.2h0c0,0,0,0,0,0h0c0,.1,0,.2,0,.2h0c0,0,0-.2,0-.2Z"/>
  <path class="st0" d="M36,39.8h0c0,0-.3,1.3-.3,1.3l-.5.4h-.2s0,.2,0,.2l-1,.4-.4-.2.6-.2h.2c0-.1-.2,0-.2,0l-.7.2h-.3c0-.1-.4-1.2-.4-1.2l.2-.3h-.2c0-.1.6-2.2.6-2.2h-.1c0,0,.5-1.4.5-1.4l.9-.2h.1c0-.1.8-.3.8-.3v.4c.1,0,.2,0,.2,0h0c0-.1-.1-.5-.1-.5h.2s0,.2,0,.2h0c0,0,0,0,0,0v-.2c0,0,.1,0,.1,0l.5,1.1-.2.7h-.2s-.3.4-.3.4l-.7-.2v-.5c.1,0,0-.3,0-.3l-.5.3-.2.9h-.1c0,0-.4,2.1-.4,2.1l.2.2.7-.3.2-.7h-.3s0-.1,0-.1h-.1v-.4h.3c0,0,.1-.1.1-.1h-.1s-.1,0-.2,0l.2-.3,1.5-.3v.2c.1,0,0,0,0,0v.2s0,0,0,0h0c0,.1-.4.2-.4.2h-.1c0,0,.1.1.1.1h.4c0,0,0,0,0,0l-.3.3ZM33.8,37.4h-.1c0,0,0,.4,0,.4h0c0,0,.1,0,.1,0v-.3c.1,0,.1-.1.1-.1h0ZM34.7,41.4h0s-.1,0-.1,0h0c0,0,0,0,0,0h.1c0,0,0-.1,0-.1Z"/>
  <path class="st0" d="M39.8,41.1l-.3.6-.4.2-.2-.4v-.2c-.1,0-.1.3-.1.3v.4c.1,0-.1.1-.1.1l-.2-.5-.2-.7-.3-.8v.2c-.1,0-.3,1.4-.3,1.4h-.2c0,0-.3,0-.3,0v.2c0,0-.4,0-.4,0l.2-.9v-.2s-.1.2-.1.2l-.2,1h-.3c0,0-.2,0-.2,0l.4-2,.2-.3s.5-2.2.5-2.2h-.2v-.3c0,0,.4,0,.4,0h.3c0,0-.3-.1-.3-.1h-.4c0,0,0-.2,0-.2h.8c0-.1.3-.2.3-.2h-.2s-.7,0-.9,0v-.3c0,0,1.5-.2,1.5-.2h1.1c0,0,.6,1,.6,1v.6c-.1,0-.3.4-.3.4v.3c.1,0,0,.8,0,.8l-.7.7.2.6.3.6h0ZM37.1,40.3h0c0,0,0,0,0,0h0c0,.1,0,.2,0,.2h0c0,0,0-.2,0-.2ZM39,38.4l.2-1.4h-.7c0,.1-.3,2-.3,2h.4c0,0,.4-.6.4-.6ZM39.5,41.2v-.2s-.1-.2-.1-.2h-.1c0-.1,0,0,0,0v.2c.1,0,.2,0,.2,0h0Z"/>
  <path class="st0" d="M42.1,38.4l-.6,2.5-.2.6h-.4c0,.1-.1.4-.1.4h-.2s.1-.5.1-.5v-.2s-.1.2-.1.2v.5c-.1,0-.4,0-.4,0v-.6c0,0,.1-1,.1-1l.2-.2.3-1.7h-.1c0,0,.4-1.8.4-1.8h.2c0,0,0,.2,0,.2h0c0,.1,0,0,0,0v-.2s.2,0,.2,0v.4c0,0,0,.1,0,.1v-.2c0,0,.2-.5.2-.5h.1s0-.2,0-.2h.6c0,.1,0,.4,0,.4l-.2,1.3-.2.4h0c0,.1,0,.1,0,.1ZM41.5,39.3h0c0-.1,0,0,0,0v.3c0,0,0,.1,0,.1v-.2c0,0,.2-.3.2-.3ZM41.5,37.2h0c0,0,0,0,0,0h0c0,.1,0,.2,0,.2h0c0,0,0-.2,0-.2Z"/>
  <path class="st0" d="M45.4,40.6l-.6,1-.3.3h-.2s.2-.2.2-.2v-.2s-.1.1-.1.1l-.2.3-1.1.3h-.6c0-.1,0-.6,0-.6h-.2c0-.1.1-1,.1-1h.3s0,0,0,0v.2s0-.2,0-.2h0c0-.1.1-.1.1-.1v.3s0,.2,0,.2v-.2c0,0,.1-.4.1-.4h.4s0,.3,0,.3h.7c0,0,.3-.5.3-.5l-1.1-.7v-.2s-.6-.3-.6-.3.2-.8.2-.8h-.2c0-.1.4-1.3.4-1.3h.5c0,0,.2-.2.2-.2h-.2s-.2,0-.2,0v-.4c0,0,.8-.1.8-.1v-.2c0,0,1.7-.1,1.7-.1v.4c0,0,.4.2.4.2l-.4,1.2v.3c-.1,0-.3,0-.3,0v-.5c.1,0,.1-.2.1-.2v.2c0,0-.2.5-.2.5l-.2.2h-.4c0-.1.1-1,.1-1h-.7c0,.1-.3.8-.3.8l.2.2,1.4.8v.3s.2,0,.2,0l-.2.9ZM44,36.9h0c0,0-.1-.1-.1-.1h-.2s0,0,0,0h0c0,0,.2,0,.2,0ZM44.2,39.1h0c0-.1-.3-.3-.3-.3h0,0c0,.1.2.3.2.3h.1Z"/>
</svg>