<svg width="43" height="39" viewBox="0 0 43 39" fill="none" xmlns="http://www.w3.org/2000/svg">
<path d="M42.2847 9.06182C43.5161 6.83673 43.1353 4.1358 41.3145 2.18097C39.2185 -0.0694253 35.9585 -0.632716 33.009 0.746057C32.1919 1.12805 31.4176 1.72121 30.3039 2.59934C30.2815 2.59042 30.2591 2.58115 30.2366 2.57248C30.1836 2.55121 30.1306 2.53001 30.0776 2.51086C28.4068 1.86421 26.6448 1.40126 24.8171 1.14642C24.3729 1.0848 23.9255 1.03493 23.4739 0.998851L23.2332 2.0384C24.4068 2.25608 25.68 2.71691 27.0041 3.54721C27.2554 3.70544 27.0911 4.09514 26.8038 4.02292C25.82 3.77549 24.4269 3.47288 22.9417 3.30195L22.7593 4.09297C24.7608 4.2809 27.0116 4.93924 29.3757 6.42263C29.7362 6.6488 29.5008 7.20625 29.0895 7.10217C27.4112 6.68061 24.9029 6.14761 22.33 5.95222L21.9239 7.71485C21.8179 8.1778 21.1606 8.1799 21.0503 7.71696L20.6337 5.95433C18.0681 6.15074 15.5693 6.68169 13.8963 7.10217C13.485 7.20625 13.2496 6.64874 13.6101 6.42263C15.9615 4.94779 18.2006 4.28837 20.1936 4.09617L20.0061 3.30616C18.5346 3.47819 17.1574 3.7776 16.182 4.02286C15.8948 4.09508 15.7305 3.70538 15.9817 3.54715C17.29 2.72745 18.5473 2.26764 19.7081 2.04677L19.4611 1.00301C19.0508 1.03806 18.6437 1.08372 18.2387 1.13889C16.5658 1.36825 14.948 1.77175 13.4044 2.33028C13.1644 2.41352 12.9272 2.50279 12.6918 2.59585C11.5805 1.71965 10.8071 1.12745 9.99101 0.745997C7.04151 -0.632836 3.78146 -0.0694855 1.68549 2.18091C-0.135294 4.13574 -0.516084 6.83661 0.715291 9.06176C1.23494 10.001 2.17867 11.0358 3.08687 11.8495C2.49404 13.1965 2.06423 14.6316 1.82543 16.1308C3.98075 18.0326 6.40844 19.6136 8.0591 20.6022C8.44608 20.8336 8.20541 21.4293 7.76551 21.3285C5.19463 20.7381 3.18033 19.724 1.60815 18.5465C1.60496 18.6717 1.60388 18.797 1.60388 18.9224C1.60388 19.2271 1.61128 19.5297 1.62715 19.8302C4.10374 22.8076 7.96366 25.3697 10.2854 26.7607C10.6724 26.9922 10.4317 27.5879 9.99179 27.487C6.37771 26.6577 3.86517 24.9907 2.13183 23.2111C2.293 23.8566 2.49013 24.4863 2.7213 25.1011C4.7949 28.2144 7.95843 30.5376 11.6658 31.5219C12.939 31.8596 14.2758 32.039 15.654 32.039C16.1587 32.039 16.6569 32.0146 17.1489 31.9678C17.1521 31.9678 17.1553 31.9668 17.1584 31.9668C17.3058 31.9562 17.452 31.9392 17.5962 31.9179C17.6036 31.9168 17.611 31.9158 17.6195 31.9147C18.7825 31.7363 19.8373 31.2298 20.6876 30.494C20.9855 30.236 21.2569 29.9493 21.5007 29.6393C21.752 29.961 22.0361 30.2573 22.3478 30.5238C23.1132 31.1768 24.043 31.6451 25.065 31.8574C25.3947 31.9254 25.7339 31.9678 26.0806 31.9795C26.5301 32.0188 26.985 32.039 27.4439 32.039C28.767 32.039 30.0519 31.8733 31.2785 31.5612C34.9021 30.6395 38.0168 28.4426 40.1202 25.4748C40.4149 24.7422 40.6609 23.9851 40.8559 23.2079C39.1226 24.9885 36.61 26.6566 32.9938 27.487C32.5538 27.5879 32.3131 26.9922 32.7001 26.7607C35.0218 25.3697 38.8819 22.8076 41.3583 19.8302C41.3742 19.5297 41.3817 19.2271 41.3817 18.9224C41.3817 18.7971 41.3806 18.6718 41.3774 18.5465C39.8052 19.724 37.792 20.7381 35.2201 21.3285C34.7801 21.4293 34.5394 20.8336 34.9264 20.6022C36.5771 19.6136 39.0048 18.0326 41.1601 16.1308C40.9218 14.6348 40.4944 13.202 39.9037 11.8576C40.8146 11.0427 41.7629 10.0042 42.2844 9.06176L42.2847 9.06182ZM4.10007 9.89333C3.47668 9.2892 2.88782 8.60677 2.56993 8.03233C1.62613 6.3268 2.29516 4.63976 3.23607 3.62955C4.34302 2.44117 6.54129 1.47685 9.09442 2.67041C9.51436 2.86671 9.97435 3.18154 10.5494 3.61822C7.89378 5.11409 5.66737 7.28226 4.10007 9.89333ZM17.6293 18.092C16.5702 18.6749 16.725 17.0854 16.531 16.9919C16.3667 16.9133 14.2792 18.0113 13.2858 16.2423C12.9402 15.6264 13.0187 14.9065 12.9869 14.8428C12.9413 14.7515 11.4454 14.108 12.7366 13.3923C12.7908 13.3626 13.853 13.0982 13.9346 13.0929C17.8031 12.8009 18.8114 17.4411 17.6293 18.0919V18.092ZM23.599 25.4759L22.648 26.7066C22.6183 26.7437 22.595 26.7852 22.577 26.8298L21.9886 28.2706C21.8094 28.7081 21.1903 28.7081 21.0122 28.2706L20.4238 26.8298C20.4057 26.7852 20.3814 26.7437 20.3527 26.7066L19.4007 25.4759C19.1113 25.1022 19.4209 23.7887 19.8884 23.8524L21.4998 24.8473L23.1113 23.8524C23.5788 23.7887 23.8883 25.1022 23.5989 25.4759H23.599ZM30.7571 14.2429C30.6829 14.5912 30.1804 14.6889 30.1582 14.742C30.0278 15.052 29.9758 18.1377 26.5144 16.9919C26.5738 17.5271 26.136 18.3532 25.5158 18.1918C24.5627 17.9455 24.7578 13.3711 28.3114 13.0929C29.0111 13.0377 30.9703 13.2427 30.7571 14.2429V14.2429ZM38.8924 9.90086C37.3264 7.28865 35.1003 5.11945 32.4457 3.62208C33.0232 3.18341 33.4847 2.86725 33.9058 2.67041C36.4589 1.47691 38.657 2.44123 39.7642 3.62955C40.705 4.6397 41.374 6.3268 40.4303 8.03233C40.111 8.60918 39.5186 9.29486 38.8924 9.90086Z" fill="#5B3107"/>
<path d="M26.3776 33.55C24.6347 33.55 22.948 33.3228 21.7119 32.3055C21.6058 32.2408 21.4998 32.0284 21.4998 32.0284C21.4998 32.0284 21.3938 32.2408 21.2665 32.3066C19.9657 33.3313 18.418 33.5468 16.7185 33.5468C15.9224 33.5468 15.1018 33.4257 14.2813 33.1878C14.2208 33.1698 14.1529 33.1486 14.0788 33.1241C14.9672 34.8613 16.4133 36.9615 17.484 37.5307C18.7678 38.2134 24.0877 38.2443 25.4075 37.6008C26.455 37.09 27.9784 34.8931 28.9209 33.1602C28.8923 33.1698 28.8637 33.1793 28.835 33.1878C28.0198 33.4288 27.1929 33.5498 26.3776 33.5498V33.55Z" fill="#5B3107"/>
</svg>
