<svg width="155" height="30" viewBox="0 0 155 30" fill="none" xmlns="http://www.w3.org/2000/svg">
<path d="M32.5006 6.96287C33.4471 5.25316 33.1544 3.17781 31.7549 1.67574C30.1439 -0.0534001 27.6382 -0.486236 25.3712 0.573183C24.7431 0.866652 24.1479 1.32248 23.292 1.99725C23.2748 1.99042 23.2576 1.98323 23.2402 1.97661C23.1995 1.96031 23.1587 1.94401 23.118 1.92927C21.8338 1.43238 20.4795 1.0767 19.0747 0.880888C18.7333 0.833554 18.3894 0.795189 18.0423 0.7675L17.8573 1.56626C18.7594 1.73353 19.738 2.08757 20.7557 2.72562C20.9489 2.84719 20.8226 3.14664 20.6017 3.09112C19.8455 2.901 18.7748 2.66846 17.6332 2.53714L17.493 3.145C19.0314 3.28942 20.7614 3.79529 22.5785 4.93507C22.8556 5.10888 22.6746 5.53716 22.3585 5.45723C21.0686 5.1333 19.1407 4.72374 17.163 4.57362L16.8509 5.928C16.7695 6.28375 16.2642 6.28539 16.1795 5.92964L15.8593 4.57526C13.8873 4.72623 11.9668 5.13415 10.6809 5.45723C10.3648 5.53716 10.1838 5.10881 10.4609 4.93507C12.2681 3.80183 13.9891 3.29512 15.5211 3.14749L15.3769 2.54048C14.2459 2.67266 13.1874 2.90271 12.4377 3.09119C12.2169 3.14664 12.0906 2.84726 12.2837 2.72569C13.2893 2.09583 14.2556 1.74257 15.1479 1.57281L14.9581 0.770775C14.6427 0.79768 14.3298 0.832771 14.0186 0.875193C12.7327 1.05143 11.4892 1.36148 10.3028 1.79062C10.1184 1.85461 9.93602 1.92315 9.75511 1.99469C8.90098 1.32141 8.30647 0.866438 7.67925 0.573326C5.41224 -0.486236 2.90652 -0.0534001 1.29552 1.67574C-0.104002 3.17781 -0.396673 5.25309 0.549798 6.96287C0.949244 7.68454 1.67463 8.47968 2.37265 9.10491C1.91697 10.1399 1.58662 11.2426 1.40307 12.3946C3.05964 13.8559 4.92564 15.0707 6.19436 15.8303C6.49179 16.0082 6.30682 16.4659 5.96865 16.3884C3.99261 15.9348 2.44445 15.1556 1.23601 14.2508C1.23353 14.3471 1.23274 14.4433 1.23274 14.5396C1.23274 14.7738 1.23843 15.0063 1.25066 15.2372C3.15419 17.525 6.121 19.4937 7.90553 20.5625C8.20296 20.7404 8.01799 21.198 7.67982 21.1205C4.90197 20.4833 2.97078 19.2024 1.63852 17.8349C1.76235 18.331 1.91391 18.8148 2.09156 19.2872C3.68536 21.6794 6.11694 23.4645 8.96645 24.2208C9.94505 24.4803 10.9726 24.6182 12.0319 24.6182C12.4198 24.6182 12.8027 24.5994 13.1809 24.5635C13.1833 24.5635 13.1858 24.5627 13.1882 24.5627C13.3014 24.5545 13.4139 24.5415 13.5247 24.5252C13.5305 24.5244 13.5362 24.5236 13.5426 24.5228C14.4366 24.3857 15.2473 23.9966 15.9008 23.4311C16.1297 23.2329 16.3384 23.0126 16.5258 22.7744C16.7189 23.0216 16.9373 23.2492 17.1769 23.454C17.7652 23.9557 18.4799 24.3155 19.2653 24.4787C19.5187 24.531 19.7795 24.5636 20.0459 24.5725C20.3914 24.6027 20.741 24.6182 21.0938 24.6182C22.1108 24.6182 23.0984 24.491 24.0412 24.2511C26.8263 23.5429 29.2203 21.8549 30.837 19.5745C31.0635 19.0115 31.2526 18.4298 31.4025 17.8326C30.0702 19.2009 28.139 20.4826 25.3596 21.1206C25.0214 21.1981 24.8364 20.7404 25.1339 20.5626C26.9184 19.4938 29.8853 17.525 31.7887 15.2373C31.801 15.0064 31.8067 14.7738 31.8067 14.5397C31.8067 14.4434 31.8058 14.3471 31.8034 14.2508C30.5949 15.1556 29.0475 15.9348 27.0707 16.3885C26.7326 16.466 26.5476 16.0082 26.845 15.8304C28.1138 15.0708 29.9798 13.856 31.6364 12.3947C31.4532 11.2452 31.1247 10.1443 30.6707 9.11117C31.3708 8.48509 32.0997 7.68711 32.5005 6.96294L32.5006 6.96287ZM3.15121 7.60176C2.67207 7.13754 2.21945 6.61317 1.97512 6.17179C1.24973 4.86125 1.76392 3.56495 2.4871 2.78875C3.33788 1.87561 5.02751 1.13471 6.98998 2.05177C7.31272 2.2026 7.66631 2.44453 8.10834 2.78007C6.06718 3.92946 4.35587 5.59546 3.15121 7.60176ZM13.5501 13.9015C12.7361 14.3494 12.855 13.128 12.7058 13.0562C12.5796 12.9959 10.9751 13.8395 10.2116 12.4802C9.9459 12.007 10.0062 11.4538 9.9818 11.4048C9.94676 11.3346 8.79697 10.8402 9.78944 10.2903C9.83103 10.2675 10.6475 10.0643 10.7102 10.0603C13.6836 9.83591 14.4587 13.4013 13.5501 13.9015ZM18.1385 19.5752L17.4076 20.5208C17.3847 20.5493 17.3668 20.5811 17.353 20.6155L16.9007 21.7226C16.763 22.0588 16.2871 22.0588 16.1502 21.7226L15.698 20.6155C15.6842 20.5812 15.6655 20.5494 15.6434 20.5208L14.9117 19.5752C14.6892 19.288 14.9272 18.2787 15.2865 18.3277L16.5251 19.0922L17.7636 18.3277C18.123 18.2787 18.3609 19.288 18.1384 19.5752H18.1385ZM23.6403 10.9439C23.5833 11.2116 23.197 11.2866 23.1799 11.3274C23.0797 11.5656 23.0398 13.9366 20.3793 13.0562C20.4249 13.4674 20.0884 14.1022 19.6117 13.9782C18.8791 13.7889 19.029 10.2741 21.7604 10.0603C22.2982 10.0179 23.8041 10.1754 23.6403 10.9439ZM29.8932 7.60753C28.6896 5.60037 26.9786 3.93359 24.9382 2.78306C25.3821 2.44596 25.7368 2.2031 26.0605 2.05177C28.0228 1.13471 29.7124 1.87568 30.5634 2.78875C31.2865 3.56495 31.8008 4.86125 31.0754 6.17179C30.83 6.61502 30.3746 7.14188 29.8933 7.60753H29.8932Z" fill="#5B3107"/>
<path d="M20.2741 25.7791C18.9344 25.7791 17.638 25.6045 16.6879 24.8229C16.6064 24.7732 16.5249 24.6099 16.5249 24.6099C16.5249 24.6099 16.4434 24.7732 16.3456 24.8237C15.3457 25.611 14.1561 25.7766 12.8499 25.7766C12.2379 25.7766 11.6072 25.6836 10.9765 25.5009C10.9301 25.487 10.8779 25.4707 10.8209 25.4519C11.5037 26.7867 12.6151 28.4005 13.4382 28.8378C14.425 29.3624 18.5139 29.3861 19.5284 28.8916C20.3335 28.4992 21.5045 26.8111 22.2288 25.4796C22.2068 25.4869 22.1848 25.4943 22.1628 25.5008C21.5362 25.686 20.9006 25.779 20.274 25.779L20.2741 25.7791Z" fill="#5B3107"/>
<path d="M52.0964 10.5218L50.8447 14.4159L49.5931 16.6986L48.8555 16.9001L48.4978 17.3924L45.7262 18.0639L45.1451 20.7718L44.4969 21.1299L44.184 21.9356L43.6475 21.9579L43.8934 21.0851L43.8264 20.7493L43.5805 21.0851L43.3569 21.9803L41.8594 22.0474L43.0888 16.2062L42.8652 15.9377L43.9381 11.7526L43.6252 11.5959L43.5134 10.5441L44.3181 10.4322L44.6534 10.2532L44.3181 10.1413L43.5582 10.2532L43.6699 9.80559L45.2793 9.55939L45.6369 9.3803L45.3016 9.26841L43.7817 9.49226L44.0498 8.55235L45.3686 8.57463L45.525 8.12706L49.4366 7.52283L49.3919 8.12706L49.5036 8.41804L49.6825 8.05994L49.7495 7.47806L50.2413 7.38852L51.4259 8.70895L51.6271 10.3875L52.0964 10.5218ZM44.2285 19.5633L44.1838 19.1828L43.9603 19.4513L43.8262 20.0109L43.9156 20.3465L44.072 20.0556L44.2285 19.5632L44.2285 19.5633ZM45.5249 15.7362L45.7261 14.6397L45.659 14.3263L45.4579 14.7069L45.2791 15.8034L45.3014 16.1392L45.5249 15.7362ZM48.7212 12.715L48.4306 12.3793L48.8107 10.5889L47.2684 10.8798L46.3966 14.8188L46.4861 15.132L47.5143 14.9082L48.453 13.6997L48.7212 12.715Z" fill="#5B3107"/>
<path d="M59.7404 19.5409L58.9358 20.9732L57.93 21.3985L57.5277 20.3467L57.2147 19.8767L57.1924 20.5929L57.5277 21.5775L56.9242 21.8461L56.4102 20.7048L55.9855 19.0039L55.1808 17.124L54.8455 17.594L54.3538 21.0629L53.9738 21.2419L53.3256 20.9957L53.1021 21.4434L52.2974 21.6672L52.6774 19.3844L52.6997 18.7802L52.4092 19.2278L51.9844 21.7567L51.3585 21.9358L50.9786 21.5777L51.9397 16.5645L52.4762 15.8931C52.4762 15.8931 53.6608 10.3652 53.5938 10.41H52.9903L53.1468 9.62669L54.0855 9.53715L54.7337 9.3133L54.1078 9.24625L53.1914 9.38049L53.3031 8.77626L55.3595 8.53012L56.0077 8.35104L55.583 8.23914C55.583 8.23914 53.9737 8.44058 53.3478 8.53012L53.482 7.81392L57.0136 7.41105L59.8075 7.20962L61.1933 9.76101L60.9028 11.2381L60.3664 12.178L60.6569 12.9166L60.2099 14.7965L58.5335 16.475L59.0475 18.0416L59.7404 19.5411L59.7404 19.5409ZM52.9454 17.7729L52.856 17.6163L52.6996 17.7953L52.6772 18.131L52.7219 18.2877L52.8784 18.131L52.9454 17.773V17.7729ZM57.7511 13.0954L58.1758 9.6489L56.5442 10.0069L55.7618 14.483L56.7006 14.3263L57.7511 13.0954ZM58.8687 19.7647L58.7792 19.2724L58.6004 18.8471L58.2651 18.5338L58.3098 19.0262L58.6227 19.5856L58.8687 19.7647Z" fill="#5B3107"/>
<path d="M69.3288 14.125L68.6582 17.5491C68.6582 17.5491 68.5464 17.8623 68.4124 18.2876L68.3006 18.5786C68.2559 18.7576 68.1889 18.9591 68.1218 19.1381L66.3113 20.0332L66.0877 20.2571L66.5347 20.1675L68.0099 19.429C67.8982 19.8095 67.7864 20.1004 67.7864 20.1452C67.7417 20.2347 66.3112 21.2642 66.3112 21.2642C66.3112 21.2642 63.8972 22.2489 63.8301 22.2042C63.7854 22.1818 63.2043 21.8685 62.6008 21.5552L62.8243 20.3914L62.869 19.8767L62.5562 20.3914C62.5562 20.3914 62.4667 20.9285 62.3773 21.4209C62.2208 21.3538 62.0867 21.2642 61.9526 21.1971L62.2879 19.3394L62.3326 18.8471L62.0197 19.3394C62.0197 19.3394 61.8186 20.548 61.7291 21.0851C61.4832 20.9508 61.3044 20.8389 61.2821 20.8389C61.2598 20.8165 60.9915 19.4961 60.9915 19.4961C60.9915 19.4961 61.1257 18.1757 61.1704 18.1086C61.2151 18.0414 61.5503 16.2958 61.5503 16.2958L61.2598 15.602L61.4386 14.6173L62.9809 9.80552L64.2996 9.40265L64.5455 9.13417L64.1208 9.15652L63.0703 9.46978L63.3162 8.73123C63.3162 8.73123 63.8749 8.57456 64.6349 8.3732L64.7691 8.0151C64.7691 8.0151 67.4512 7.20943 67.5184 7.23178C67.5631 7.25413 67.6525 7.41087 67.7643 7.56753C68.5465 7.3661 69.1053 7.20943 69.15 7.18701C69.2394 7.11996 69.4853 8.26131 69.4853 8.26131L70.1335 8.70888L69.8653 9.31311L70.2006 10.5441L69.7759 13.7667L69.3288 14.1248L69.3288 14.125ZM63.5843 17.3924L63.629 16.9224L63.562 16.6315L63.4056 16.8777L63.3162 17.5491L63.4056 17.7505L63.5843 17.3924ZM66.736 12.894L66.7136 11.5736L66.9148 10.8574L66.7583 10.5217L66.3337 10.8574C66.2219 10.9022 65.1937 11.4616 65.1937 11.4616L64.5008 14.6396L64.4561 15.8034L64.1208 16.3629L64.0091 18.6008L64.3667 19.0261L65.216 18.7576L65.5066 17.5267L65.7972 17.3252L66.736 12.894V12.894ZM64.8808 10.186L65.5067 10.007L65.7078 9.78317L65.3949 9.80552L64.8585 9.93984L64.5679 10.186H64.8808V10.186Z" fill="#5B3107"/>
<path d="M79.342 9.89521L78.6267 10.0742L78.4256 10.589L77.4869 10.7008C77.5316 10.7903 76.5928 16.833 76.5928 16.833L76.1011 17.3924L76.034 19.0933L75.0058 19.9437L74.9388 20.727L73.7989 21.8013L72.8377 21.8684L72.6589 21.4655L72.4353 21.2194L72.3906 21.5999C72.3906 21.5999 72.4353 21.7117 72.5023 21.8908L71.1389 21.958L69.1271 18.0861L69.7978 17.6161L70.1554 18.4442L70.4907 18.6904L70.4236 18.2876L70.0436 17.4371L70.1106 17.3924L70.0212 16.6986L71.2505 15.7139L71.5635 15.9824L72.7481 18.1085L73.1952 17.8846L73.7539 14.2815L74.1339 13.9458L74.5362 11.3049L72.9493 11.5958L73.0387 10.9244L74.0222 10.7677L74.4245 10.5663L74.0892 10.5216L73.061 10.6559L73.0833 10.4992L72.5246 10.5216L72.7927 8.91017L78.0678 7.90307L79.6995 7.61216L79.5877 8.21639L77.7996 8.57442L77.4196 8.84298L77.7325 8.88775L79.543 8.52972L79.4983 9.02206L78.3807 9.2235L77.9784 9.40251L78.3137 9.46963L79.4536 9.2235L79.3418 9.89492L79.342 9.89521ZM70.9378 19.2725L70.8261 18.9591L70.6696 18.9144L70.6249 19.1158L70.7366 19.3619L70.8931 19.4515L70.9378 19.2725ZM74.2459 16.4301L74.4247 15.5573L74.3353 15.244L74.1564 15.6468L73.9776 16.4524L74.0671 16.8553L74.2459 16.4301Z" fill="#5B3107"/>
<path d="M85.444 19.1157L85.3993 19.6752L85.377 19.72L84.6841 19.8766L84.416 20.078L84.6618 20.1003L85.2877 19.9661L84.9748 20.8389L78.761 22.0698V21.4208L77.9564 21.3537L78.0905 19.3171L78.7387 19.0486L79.2974 16.9225L78.8952 16.833L79.2304 15.535L79.6774 15.2664L79.7221 15.0202L79.3869 14.9084L79.4539 14.4607L79.8339 14.3936L80.4597 11.1933L79.9233 11.1485L79.9456 10.2085L80.5938 10.0966L80.862 9.82815H80.4597L79.9232 9.94005L79.9679 9.26855L80.3479 9.08954L80.5715 8.1719L84.6842 7.50048L85.176 7.61237L87.7017 7.23185L87.9476 8.30615L87.5676 8.66417L87.5005 9.02227L85.5336 9.35795L85.2878 9.58181H86.0031L87.456 9.26848L87.2995 10.0294L83.5667 10.7456L83.008 12.9836L82.8515 13.8788C83.2985 13.8117 83.7009 13.7445 83.7009 13.7445L83.9914 13.4536L86.1148 13.1402L86.3384 13.7892L86.2266 14.0578L85.489 14.1921L85.0643 14.4159L85.2879 14.5054L86.1149 14.3488L85.8691 14.9755L85.6232 15.1545L85.1538 16.0274L83.4774 16.3407L83.008 16.4078L82.2927 16.5644L82.2704 16.6987L81.8233 18.5116L83.6114 18.0863L83.6338 18.3772L85.556 18.1087L85.489 18.8249L84.1032 19.1159L83.5667 19.3397L84.0137 19.4068L85.4442 19.1159L85.444 19.1157ZM79.7891 17.8848L79.8785 17.0567L79.7891 16.8329L79.6103 17.0567L79.5433 17.8848L79.6103 18.131L79.7891 17.8848ZM84.0135 14.6173L84.2147 14.7292L84.5723 14.6397L84.7511 14.4606L84.5947 14.371L84.1477 14.4606L84.0135 14.6172V14.6173Z" fill="#5B3107"/>
<path d="M93.8479 16.9896L95.4349 19.7647L95.2113 20.3466L94.9878 20.5032L94.3396 19.3394L94.0043 19.0037L94.0266 19.4961L94.6972 20.7269L94.5855 21.0627L94.4067 21.1746L94.0713 20.3913L93.8031 20.1451L93.7584 20.5927L94.2502 21.6222L92.9985 21.7788L92.015 19.7646L91.6574 19.787L90.4504 17.1014L89.6457 21.2417L88.9528 21.4655L88.327 22.0922L87.7905 21.9803L87.9023 20.4809L87.8129 20.1228L87.567 20.5704L87.4552 21.9132L86.6282 21.7341L86.9858 19.7647L87.4552 19.2276L87.2094 18.7128L88.1258 13.6549L87.8129 13.5431C87.8129 13.5431 88.8858 9.22367 88.9081 9.1342L89.2658 8.57466L90.1822 8.39565L90.4728 7.94801L91.1881 8.23898L90.8975 9.64896L90.9198 10.0518L91.2104 9.55941L91.4563 8.35088L92.2162 8.66413L91.6574 11.9541L91.0539 12.8493L90.9869 13.6101L92.9762 11.417L92.9539 10.9693L94.4961 8.95511L95.882 7.94801L97.223 8.21656C97.1113 8.84322 97.156 8.86557 97.156 8.86557L96.1055 10.0741L95.9043 10.477L96.329 10.2308L97.3348 9.08942C97.4913 9.29079 97.6701 9.58177 97.6701 9.58177L94.7197 13.3193L94.0938 13.4536L93.5574 14.8859L93.2444 14.9755L92.9763 15.2664L93.468 15.9826L93.848 16.9897L93.8479 16.9896ZM89.4446 18.6456L89.6011 17.6162L89.4 17.5938L89.2435 18.1309L89.1541 18.8471L89.2882 19.0262L89.4446 18.6457V18.6456ZM94.6973 11.9093L95.0326 11.7079L95.4126 11.2826L95.502 10.9693L95.1444 11.1484L94.7868 11.5736L94.6973 11.9094L94.6973 11.9093Z" fill="#5B3107"/>
<path d="M106.074 9.15663L105.806 9.58185L105.672 10.0965C105.672 10.0965 104.689 10.2756 103.549 10.4546L103.012 13.2297L102.699 13.9012L101.962 16.5867L102.141 16.9896L101.381 20.1228L100.799 20.4809L100.33 21.7789L99.95 21.8237L100.263 20.1452L100.33 19.6305L100.062 20.1228L99.7041 21.8685L98.8548 21.9803L98.7653 20.9285L98.3631 20.8613L98.7653 18.1758L99.2571 17.7953L99.056 17.2806L99.7712 12.8717L100.352 11.9318L100.397 10.9694C100.285 10.9694 100.218 10.9918 100.196 10.9918L98.2737 11.3051V10.4322L99.1678 10.2756L99.5701 10.007L99.2348 9.98472L98.1396 10.2085L97.9607 9.98472L98.3407 8.64187L101.224 8.10476L101.425 7.67954L105.985 7.32144L106.186 8.01522C105.762 8.08234 104.622 8.23907 104.622 8.23907L104.264 8.44051L104.599 8.48528L106.253 8.28384L106.343 8.68664L106.209 8.88808C105.873 8.93285 105.56 8.97762 105.56 8.97762L105.18 9.17905L105.538 9.22383L106.075 9.1567L106.074 9.15663ZM100.643 18.5787V18.1981L100.419 18.5339L100.308 18.9591L100.375 19.183L100.576 18.9591L100.643 18.5787ZM101.246 12.1779L101.224 11.887L101 12.1779L100.799 13.1626V13.5207L101 13.185L101.246 12.1779Z" fill="#5B3107"/>
<path d="M118.635 9.15663L118.367 9.58185L118.233 10.0965C118.233 10.0965 117.249 10.2756 116.109 10.4546L115.573 13.2297L115.26 13.9012L114.522 16.5867L114.701 16.9896L113.941 20.1228L113.36 20.4809L112.891 21.7789L112.511 21.8237L112.824 20.1452L112.891 19.6305L112.622 20.1228L112.265 21.8685L111.416 21.9803L111.326 20.9285L110.924 20.8613L111.326 18.1758L111.818 17.7953L111.617 17.2806L112.332 12.8717L112.913 11.9318L112.958 10.9694C112.846 10.9694 112.779 10.9918 112.757 10.9918L110.834 11.3051V10.4322L111.729 10.2756L112.131 10.007L111.796 9.98472L110.7 10.2085L110.521 9.98472L110.902 8.64187L113.785 8.10476L113.986 7.67954L118.546 7.32144L118.747 8.01522C118.322 8.08234 117.182 8.23907 117.182 8.23907L116.825 8.44051L117.16 8.48528L118.814 8.28384L118.904 8.68664L118.769 8.88808C118.434 8.93285 118.121 8.97762 118.121 8.97762L117.741 9.17905L118.099 9.22383L118.635 9.1567L118.635 9.15663ZM113.204 18.5787V18.1981L112.98 18.5339L112.868 18.9591L112.935 19.183L113.137 18.9591L113.204 18.5787ZM113.807 12.1779L113.785 11.887L113.561 12.1779L113.36 13.1626V13.5207L113.561 13.185L113.807 12.1779Z" fill="#5B3107"/>
<path d="M122.144 12.9835L120.691 19.1381L120.289 20.5257L119.305 20.8614L119.059 21.5999L118.59 21.6447L118.881 20.2571L118.814 19.8767L118.59 20.3242L118.322 21.667L117.584 21.7341L117.338 20.257L117.852 17.7057L118.299 17.1685L119.126 12.9163L118.836 12.715L119.708 8.44037L120.132 8.30605L119.998 8.86552L120.088 9.22362L120.311 8.79832L120.423 8.21644L120.803 8.10455L120.579 9.20119L120.669 9.55922L120.892 9.134L121.116 8.01493L121.406 7.92539L121.608 7.47782L123.105 7.72403L122.993 8.55212L122.39 11.7748L121.898 12.6477L122.144 12.9833L122.144 12.9835ZM120.602 15.2887L120.49 14.9977L120.356 15.3558L120.177 16.0048L120.199 16.3405L120.423 15.96L120.602 15.2886V15.2887ZM120.691 10.0069L120.624 9.87269L120.468 10.0517L120.423 10.365L120.468 10.5217L120.624 10.365L120.691 10.0069Z" fill="#5B3107"/>
<path d="M130.324 16.542L130.503 16.7211L129.743 19.7424L128.559 20.6153L128.044 20.6824L127.91 21.2195L125.34 22.1372L124.245 21.6895L125.675 21.1524L126.1 20.8838L125.608 20.951L123.909 21.5552L123.261 21.2867L122.322 18.534L122.702 17.8625L122.322 17.5268L123.82 12.4913L123.507 12.3122L124.692 8.9552L126.882 8.39574L127.195 8.03764L129.05 7.67961L129.408 8.59717L129.654 8.75384V8.44058L129.363 7.61249L129.81 7.52295L130.011 8.08241L130.257 8.23907L130.28 7.92575L130.101 7.47818L130.637 7.36628L131.844 10.0295L131.308 11.8647L130.838 11.887L130.101 12.8047L128.38 12.3794L128.692 11.1037L128.223 10.4771L127.083 11.2156L126.636 13.3641L126.345 13.5208L125.451 18.4444L125.831 18.9368L127.553 18.243L128 16.6092L127.262 16.6988L127.105 16.2512L126.77 16.0721V15.3336L127.418 15.1321L127.664 14.9755L127.351 14.886C127.351 14.886 127.061 14.9531 126.837 14.9978L127.24 14.304L130.883 13.5878L131.196 14.1698L130.816 14.3712L130.749 14.774L130.883 14.8188L130.928 15.1321L129.944 15.2887L129.676 15.4678L129.967 15.5574L130.972 15.3559L131.017 15.7587L130.324 16.542ZM124.982 10.589L124.647 10.8127C124.647 10.8127 124.401 11.4842 124.401 11.5289L124.379 11.7528L124.647 11.5066L124.915 10.8799L124.982 10.589L124.982 10.589ZM127.106 20.481L126.905 20.4586L126.592 20.6153L126.457 20.7495L126.659 20.7943L126.994 20.6601L127.106 20.481Z" fill="#5B3107"/>
<path d="M139.779 19.5409L138.974 20.9732L137.968 21.3985L137.566 20.3467L137.253 19.8767L137.231 20.5929L137.566 21.5775L136.963 21.8461L136.449 20.7048L136.024 19.0039L135.219 17.124L134.884 17.594L134.392 21.0629L134.012 21.2419L133.364 20.9957L133.14 21.4434L132.336 21.6672L132.716 19.3844L132.738 18.7802L132.448 19.2278L132.023 21.7567L131.397 21.9358L131.017 21.5777L131.978 16.5645L132.515 15.8931C132.515 15.8931 133.699 10.3652 133.632 10.41H133.029L133.185 9.62669L134.124 9.53715L134.772 9.3133L134.146 9.24625L133.23 9.38049L133.341 8.77626L135.398 8.53012L136.046 8.35104L135.621 8.23914C135.621 8.23914 134.012 8.44058 133.386 8.53012L133.52 7.81392L137.052 7.41105L139.846 7.20962L141.232 9.76101L140.941 11.2381L140.405 12.178L140.695 12.9166L140.248 14.7965L138.572 16.475L139.086 18.0416L139.779 19.5411L139.779 19.5409ZM132.984 17.7729L132.894 17.6163L132.738 17.7953L132.716 18.131L132.76 18.2877L132.917 18.131L132.984 17.773V17.7729ZM137.789 13.0954L138.214 9.6489L136.582 10.0069L135.8 14.483L136.739 14.3263L137.789 13.0954ZM138.907 19.7647L138.818 19.2724L138.639 18.8471L138.304 18.5338L138.348 19.0262L138.661 19.5856L138.907 19.7647H138.907Z" fill="#5B3107"/>
<path d="M145.411 12.9835L143.958 19.1381L143.556 20.5257L142.572 20.8614L142.326 21.5999L141.857 21.6447L142.148 20.2571L142.081 19.8767L141.857 20.3242L141.589 21.667L140.851 21.7341L140.605 20.257L141.119 17.7057L141.566 17.1685L142.393 12.9163L142.103 12.715L142.975 8.44037L143.399 8.30605L143.265 8.86552L143.355 9.22362L143.578 8.79832L143.69 8.21644L144.07 8.10455L143.846 9.20119L143.936 9.55922L144.159 9.134L144.383 8.01493L144.673 7.92539L144.875 7.47782L146.372 7.72403L146.26 8.55212L145.657 11.7748L145.165 12.6477L145.411 12.9833L145.411 12.9835ZM143.869 15.2887L143.757 14.9977L143.623 15.3558L143.444 16.0048L143.466 16.3405L143.69 15.96L143.869 15.2886V15.2887ZM143.958 10.0069L143.891 9.87269L143.735 10.0517L143.69 10.365L143.735 10.5217L143.891 10.365L143.958 10.0069Z" fill="#5B3107"/>
<path d="M153.435 18.3325L152.005 20.8166L151.245 21.5551L150.708 21.4656L151.088 20.9509L151.178 20.5257L150.82 20.8389L150.373 21.4879L147.579 22.137L146.037 21.8237L145.903 20.7047L145.523 20.3689L145.88 18.3547L146.506 18.2876L146.484 18.489L146.528 19.0485L146.707 18.5114L146.752 18.2652L147.065 18.2428L146.953 19.0933L147.02 19.6527L147.199 19.1156L147.333 18.2204L148.227 18.1309L148.428 18.9813L150.038 18.7799L150.731 17.6833L148.048 15.9152L148.138 15.4229C148.138 15.4229 146.551 14.7739 146.461 14.7739C146.372 14.7739 146.931 12.9163 146.931 12.9163L146.551 12.6701L147.423 9.6936L148.54 9.53694L148.92 9.31309L148.473 9.24604L147.959 9.33551L148.183 8.44037L149.814 8.12704L150.016 7.70182L153.994 7.43326L154.173 8.32848L155 8.73127L154.128 11.6855L153.815 12.424L153.391 12.4688L153.748 11.2379L153.659 10.835L153.458 11.2379L153.078 12.5359L152.631 13.0954L151.535 12.7597L151.781 10.7454L150.105 11.0812L149.412 12.6926L149.971 13.2968L153.346 15.3781L153.257 16.0048H153.86L153.435 18.3323L153.435 18.3325ZM150.038 9.31323L150.194 9.15664L149.903 9.04474L149.479 9.06709L149.255 9.26846L149.434 9.42512L150.038 9.31323ZM150.552 14.6845L150.418 14.4159L149.792 13.9907H149.59L149.792 14.2369L150.306 14.6397L150.552 14.6845Z" fill="#5B3107"/>
</svg>
