<svg width="12" height="8" viewBox="0 0 12 8" fill="none" xmlns="http://www.w3.org/2000/svg">
<path d="M5.93543 4.37521L9.99693 0.313706C10.2114 0.0992057 10.4687 -0.00529381 10.7687 0.000206203C11.0687 0.00570622 11.3259 0.115706 11.5404 0.330206C11.7549 0.544706 11.8622 0.80479 11.8622 1.11046C11.8622 1.41596 11.7549 1.67596 11.5404 1.89046L6.72118 6.70971C6.61035 6.82054 6.48726 6.90421 6.35193 6.96071C6.21677 7.01721 6.07793 7.04546 5.93543 7.04546C5.79293 7.04546 5.65402 7.01721 5.51868 6.96071C5.38335 6.90421 5.26027 6.82054 5.14943 6.70971L0.313682 1.87371C0.0991811 1.65921 -0.0053187 1.40196 0.000182104 1.10196C0.00568196 0.801955 0.115681 0.544705 0.330181 0.330205C0.544681 0.115705 0.804765 0.00845543 1.11043 0.00845545C1.41593 0.00845546 1.67593 0.115705 1.89043 0.330205L5.93543 4.37521Z" fill="#F7E9CE"/>
</svg>
