<svg width="30" height="26" viewBox="0 0 30 26" fill="none" xmlns="http://www.w3.org/2000/svg">
<path d="M28.8832 6.1898C29.7243 4.66992 29.4642 2.82501 28.2204 1.48974C26.7888 -0.0474219 24.5619 -0.432185 22.5472 0.509605C21.9891 0.770529 21.4602 1.1757 20.6995 1.77551C20.6842 1.76942 20.6689 1.76309 20.6535 1.75716C20.6173 1.74264 20.5811 1.72816 20.5449 1.71508C19.4036 1.27337 18.2001 0.957151 16.9517 0.783078C16.6483 0.740989 16.3427 0.706923 16.0342 0.682279L15.8698 1.39236C16.6714 1.54104 17.5411 1.85582 18.4455 2.42297C18.6172 2.53105 18.5049 2.79724 18.3087 2.74791C17.6367 2.5789 16.6851 2.3722 15.6706 2.25544L15.546 2.79576C16.9132 2.92413 18.4506 3.37381 20.0655 4.38707C20.3117 4.54156 20.1509 4.92233 19.87 4.85123C18.7236 4.56328 17.0103 4.19921 15.2528 4.06574L14.9754 5.26973C14.903 5.58596 14.454 5.5874 14.3787 5.27117L14.0941 4.06718C12.3416 4.20135 10.6348 4.56402 9.49209 4.85123C9.21111 4.92233 9.05033 4.54151 9.2966 4.38707C10.9027 3.37965 12.4321 2.92923 13.7935 2.79794L13.6654 2.25832C12.6603 2.37582 11.7196 2.58034 11.0534 2.74787C10.8571 2.7972 10.7449 2.53101 10.9165 2.42293C11.8101 1.86302 12.669 1.54894 13.4619 1.39807L13.2932 0.685118C13.0129 0.709063 12.7348 0.740249 12.4582 0.777935C11.3155 0.934605 10.2105 1.21022 9.15607 1.59173C8.99213 1.64859 8.83008 1.70956 8.6693 1.77313C7.91022 1.17463 7.38192 0.770118 6.8245 0.509563C4.8098 -0.432268 2.58298 -0.047463 1.1513 1.4897C-0.0924143 2.82497 -0.352518 4.66984 0.488589 6.18976C0.843542 6.83129 1.48817 7.53816 2.10853 8.09395C1.70359 9.01402 1.41 9.99432 1.24688 11.0184C2.71911 12.3174 4.37738 13.3973 5.50488 14.0726C5.76921 14.2307 5.60482 14.6376 5.30434 14.5687C3.54826 14.1654 2.17236 13.4728 1.09847 12.6684C1.09629 12.754 1.09555 12.8396 1.09555 12.9252C1.09555 13.1334 1.10061 13.3401 1.11145 13.5453C2.80311 15.579 5.43969 17.3291 7.02557 18.2793C7.28991 18.4374 7.12552 18.8443 6.82503 18.7754C4.35638 18.2089 2.64016 17.0702 1.45617 15.8546C1.56626 16.2956 1.70092 16.7257 1.85882 17.1456C3.27522 19.2722 5.43611 20.8591 7.96847 21.5315C8.83817 21.7621 9.75129 21.8847 10.6927 21.8847C11.0374 21.8847 11.3778 21.868 11.7138 21.8361C11.716 21.8361 11.7181 21.8353 11.7203 21.8353C11.8209 21.8281 11.9208 21.8165 12.0193 21.802C12.0244 21.8012 12.0295 21.8005 12.0352 21.7998C12.8297 21.6779 13.5502 21.332 14.131 20.8294C14.3345 20.6531 14.5198 20.4573 14.6864 20.2455C14.858 20.4653 15.0521 20.6676 15.265 20.8497C15.7878 21.2958 16.4229 21.6156 17.121 21.7607C17.3462 21.8071 17.5779 21.8361 17.8147 21.8441C18.1218 21.8709 18.4324 21.8847 18.746 21.8847C19.6497 21.8847 20.5274 21.7715 21.3652 21.5583C23.8404 20.9287 25.9679 19.4281 27.4046 17.4009C27.6059 16.9005 27.774 16.3834 27.9072 15.8525C26.7232 17.0687 25.0069 18.2082 22.5368 18.7754C22.2363 18.8443 22.0719 18.4374 22.3363 18.2793C23.9222 17.3291 26.5588 15.579 28.2504 13.5453C28.2612 13.3401 28.2663 13.1334 28.2663 12.9252C28.2663 12.8396 28.2656 12.754 28.2634 12.6684C27.1895 13.4727 25.8143 14.1654 24.0575 14.5687C23.757 14.6376 23.5926 14.2307 23.857 14.0726C24.9845 13.3974 26.6428 12.3174 28.115 11.0184C27.9522 9.9965 27.6603 9.0178 27.2568 8.09947C27.879 7.54289 28.5267 6.83352 28.8829 6.18976L28.8832 6.1898ZM2.80061 6.75777C2.3748 6.34511 1.97256 5.87897 1.75543 5.4866C1.11075 4.32161 1.56774 3.16925 2.21044 2.47921C2.96656 1.66747 4.46812 1.00878 6.21207 1.82406C6.49892 1.95814 6.81312 2.1732 7.20595 2.47148C5.39195 3.49325 3.87117 4.97425 2.80061 6.75777ZM12.0419 12.358C11.3185 12.7562 11.4242 11.6704 11.2917 11.6066C11.1795 11.5529 9.75363 12.3029 9.07506 11.0945C8.83899 10.6738 8.8926 10.1821 8.87087 10.1386C8.83973 10.0762 7.81796 9.63667 8.69994 9.14781C8.73691 9.12749 9.46251 8.94692 9.51825 8.9433C12.1607 8.74384 12.8494 11.9134 12.0419 12.3579V12.358ZM16.1196 17.4017L15.47 18.2423C15.4498 18.2677 15.4339 18.296 15.4215 18.3264L15.0196 19.3106C14.8972 19.6095 14.4743 19.6095 14.3526 19.3106L13.9507 18.3264C13.9384 18.296 13.9218 18.2677 13.9022 18.2423L13.2519 17.4017C13.0542 17.1464 13.2657 16.2492 13.585 16.2927L14.6857 16.9723L15.7865 16.2927C16.1058 16.2492 16.3172 17.1464 16.1196 17.4017H16.1196ZM21.0091 9.72883C20.9584 9.96671 20.6152 10.0334 20.6 10.0697C20.5109 10.2815 20.4754 12.3892 18.1111 11.6066C18.1516 11.9721 17.8526 12.5364 17.4289 12.4262C16.7779 12.2579 16.9112 9.13333 19.3385 8.9433C19.8164 8.90557 21.1547 9.04558 21.0091 9.72879V9.72883ZM26.566 6.76291C25.4963 4.97861 23.9757 3.49691 22.1625 2.47411C22.5569 2.17447 22.8722 1.95852 23.1598 1.82406C24.9037 1.00883 26.4052 1.66752 27.1615 2.47921C27.8041 3.16921 28.2611 4.32161 27.6165 5.4866C27.3984 5.88062 26.9937 6.34898 26.566 6.76291Z" fill="#F78102"/>
<path d="M18.0173 22.9168C16.8268 22.9168 15.6747 22.7616 14.8303 22.0667C14.7579 22.0225 14.6855 21.8774 14.6855 21.8774C14.6855 21.8774 14.6131 22.0225 14.5261 22.0675C13.6376 22.7674 12.5804 22.9146 11.4196 22.9146C10.8757 22.9146 10.3152 22.8319 9.75476 22.6694C9.71348 22.6571 9.6671 22.6426 9.61646 22.6259C10.2233 23.8125 11.2111 25.2471 11.9424 25.6359C12.8194 26.1022 16.4532 26.1233 17.3547 25.6837C18.0702 25.3349 19.1108 23.8343 19.7546 22.6505C19.735 22.6571 19.7155 22.6636 19.6959 22.6694C19.139 22.834 18.5742 22.9167 18.0173 22.9167V22.9168Z" fill="#F78102"/>
</svg>
