<svg width="28" height="28" viewBox="0 0 28 28" fill="none" xmlns="http://www.w3.org/2000/svg">
<path d="M4.324 21.6758C3.96427 21.6758 3.66007 21.5511 3.41137 21.3019C3.16268 21.0528 3.03833 20.7442 3.03833 20.3761C3.03833 20.0154 3.16268 19.7116 3.41137 19.4647C3.66007 19.2175 3.96427 19.094 4.324 19.094H23.6761C24.0358 19.094 24.3419 19.2186 24.5942 19.4679C24.8464 19.7171 24.9725 20.0221 24.9725 20.3828C24.9725 20.7509 24.8464 21.0584 24.5942 21.3054C24.3419 21.5523 24.0358 21.6758 23.6761 21.6758H4.324ZM4.324 15.2854C3.96427 15.2854 3.66007 15.1607 3.41137 14.9115C3.16268 14.6622 3.03833 14.3572 3.03833 13.9965C3.03833 13.6358 3.16268 13.332 3.41137 13.085C3.66007 12.8381 3.96427 12.7146 4.324 12.7146H23.6761C24.0358 12.7146 24.3419 12.8393 24.5942 13.0885C24.8464 13.3378 24.9725 13.6428 24.9725 14.0035C24.9725 14.3642 24.8464 14.668 24.5942 14.915C24.3419 15.1619 24.0358 15.2854 23.6761 15.2854H4.324ZM4.324 8.90604C3.96427 8.90604 3.66007 8.7814 3.41137 8.53212C3.16268 8.28284 3.03833 7.97416 3.03833 7.60608C3.03833 7.24538 3.16268 6.94156 3.41137 6.69462C3.66007 6.44768 3.96427 6.3242 4.324 6.3242H23.6761C24.0358 6.3242 24.3419 6.44884 24.5942 6.69812C24.8464 6.9472 24.9725 7.25209 24.9725 7.61279C24.9725 7.98087 24.8464 8.28838 24.5942 8.53533C24.3419 8.78247 24.0358 8.90604 23.6761 8.90604H4.324Z" fill="#F78102"/>
</svg>
