<svg width="24" height="24" viewBox="0 0 24 24" fill="none" xmlns="http://www.w3.org/2000/svg">
<path fill-rule="evenodd" clip-rule="evenodd" d="M3 0C1.34314 0 0 1.34326 0 3V21C0 22.6567 1.34314 24 3 24H21C22.6569 24 24 22.6567 24 21V3C24 1.34326 22.6569 0 21 0H3ZM9.56006 13.8999C9.73328 14.1665 9.92664 14.3735 10.14 14.52L12.14 14.1001C13.6333 13.7935 14.7467 13.3066 15.48 12.6401C16.2267 11.96 16.6 11.04 16.6 9.87988C16.6 9.31982 16.4933 8.7998 16.28 8.31982C16.08 7.83984 15.78 7.43311 15.38 7.1001C14.98 6.75342 14.4867 6.48682 13.9 6.2998C13.3134 6.1001 12.64 6 11.88 6C11.3199 6 10.8 6.04004 10.3199 6.12012C9.83997 6.2002 9.42664 6.31982 9.07996 6.47998C8.7467 6.64014 8.47998 6.84668 8.28003 7.1001C8.09338 7.33984 8 7.62012 8 7.93994C8 8.24658 8.06665 8.51318 8.19995 8.74023C8.34668 8.9668 8.52661 9.16016 8.73999 9.31982C9.04663 9.10645 9.43994 8.93311 9.92004 8.7998C10.4133 8.65332 10.9333 8.58008 11.48 8.58008C12.1466 8.58008 12.62 8.71338 12.9 8.97998C13.1934 9.24658 13.34 9.54688 13.34 9.87988C13.34 10.2666 13.2333 10.5601 13.02 10.7598C12.879 10.8921 12.6858 11.0127 12.4402 11.1216C12.314 11.1772 12.174 11.23 12.02 11.2798L10.5 11.6602C10.1 11.7666 9.80005 11.9136 9.59998 12.1001C9.40002 12.2734 9.30005 12.5469 9.30005 12.9199C9.30005 13.3066 9.38672 13.6333 9.56006 13.8999ZM10.02 16.02C9.71338 16.3398 9.56006 16.7534 9.56006 17.2598C9.56006 17.7666 9.71338 18.1865 10.02 18.52C10.34 18.8398 10.78 19 11.34 19C11.8867 19 12.3134 18.8398 12.62 18.52C12.9399 18.1865 13.1 17.7666 13.1 17.2598C13.1 16.7534 12.9399 16.3398 12.62 16.02C12.3134 15.6865 11.8867 15.52 11.34 15.52C10.78 15.52 10.34 15.6865 10.02 16.02Z" fill="#F78102"/>
</svg>
