<?xml version="1.0" encoding="UTF-8"?><svg id="a" xmlns="http://www.w3.org/2000/svg" viewBox="0 0 276.546 132.438"><path d="M249.329,52.787c-.092-.067-6.45-4.743-15.385-5.123l-215.779-.01-8.217,38.318h124.887c-.148-7.886-3.242-15.466-10.773-21.494,7.464-2.161,13.72-7.994,17.763-15.435-.269,2.158-.404,4.18-.437,6.269-.182,11.414,4.814,19.521,12.002,25.286,1.452,1.105,7.879,5.374,20.522,5.374h87.077c.427-3.159.717-6.418.825-9.799.319-10.139-5.131-17.747-12.485-23.387ZM193.689.278c-1.495.011-13.923.24-22.186,4.802-8.245,4.633-18.795,12.984-24.918,26.277.209-9.455-3.286-18.942-11.954-25.595C128.222,1.21,117.974.213,112.113.039l-4.503.015h-.003L28.288.316l-8.121,37.929,248.094-.04L276.546,0l-82.856.278ZM0,132.438s82.958-.316,98.143-.316c11.674,0,28.328-15.426,34.392-32.776l-7.149,32.824h82.923c15.967,0,24.496-3.259,25.784-3.829,12.713-6.15,21.049-17.735,25.027-32.884H7.918L0,132.438Z" fill="#f7e9ce"/></svg>