<?xml version="1.0" encoding="UTF-8"?>
<svg id="a" xmlns="http://www.w3.org/2000/svg" version="1.1" viewBox="0 0 384 261.3">
  <!-- Generator: Adobe Illustrator 29.0.0, SVG Export Plug-In . SVG Version: 2.1.0 Build 186)  -->
  <defs>
    <style>
      .st0 {
        fill: #f7e9ce;
      }
    </style>
  </defs>
  <path class="st0" d="M356.5,0H27.5C12.3,0,0,12.3,0,27.5v206.3c0,15.2,12.3,27.5,27.5,27.5h329c15.2,0,27.5-12.3,27.5-27.5V27.6c0-15.2-12.3-27.5-27.5-27.5h0ZM117.7,170.3h39.1c4.4,0,7.9,3.5,7.9,7.9s-3.5,7.9-7.9,7.9h-39.1c-4.4,0-7.9-3.5-7.9-7.9s3.5-7.9,7.9-7.9ZM35.9,87.3c0-4.4,3.6-8,8-8h50.2c4.4,0,8,3.6,8,8v36.8c0,4.4-3.6,8-8,8h-50.2c-4.4,0-8-3.6-8-8v-36.8ZM43.8,170.3h39.1c4.4,0,7.9,3.5,7.9,7.9s-3.5,7.9-7.9,7.9h-39.1c-4.4,0-7.9-3.5-7.9-7.9s3.5-7.9,7.9-7.9ZM180.8,222.9H43.8c-4.4,0-7.9-3.5-7.9-7.9s3.5-7.9,7.9-7.9h137c4.4,0,7.9,3.5,7.9,7.9s-3.5,7.9-7.9,7.9ZM230.7,186.1h-39.1c-4.4,0-7.9-3.5-7.9-7.9s3.5-7.9,7.9-7.9h39.1c4.4,0,7.9,3.5,7.9,7.9s-3.5,7.9-7.9,7.9ZM304.6,186.1h-39.1c-4.4,0-7.9-3.5-7.9-7.9s3.5-7.9,7.9-7.9h39.1c4.4,0,7.9,3.5,7.9,7.9s-3.5,7.9-7.9,7.9ZM339.8,65.6h-89.9c-4.4,0-7.9-3.5-7.9-7.9s3.5-7.9,7.9-7.9h89.9c4.4,0,7.9,3.5,7.9,7.9s-3.5,7.9-7.9,7.9Z"/>
</svg>